<?xml version="1.0" encoding="UTF-8"?>
<svg id="Layer_2" data-name="Layer 2" xmlns="http://www.w3.org/2000/svg" viewBox="0 0 229.49 244.62">
  <defs>
    <style>
      .cls-1 {
        fill: #505150;
        stroke-width: 0px;
      }
    </style>
  </defs>
  <g id="Layer_1-2" data-name="Layer 1">
    <path class="cls-1" d="M216.7,0c0,3.94.01,7.88-.05,11.82-.01.97.37,1.14,1.22,1.13,3.41-.04,6.82-.02,10.24-.02.44,0,.87,0,1.38,0v50.18h-1.58c-17.91,0-35.83,0-53.74,0q-1.6,0-1.61,1.56c0,2.92,0,5.84,0,8.92h33.38v12.13h-44.78v22.47h21.52v22.68h-9.1c0-.48,0-.92,0-1.35,0-3.09-.01-6.17,0-9.26,0-.67-.11-1.06-.91-1.06-3.94.03-7.88.02-11.82,0-.67,0-.99.23-.94.92.02.32,0,.65,0,.97,0,11.82-.02,23.64.03,35.46,0,1.18-.32,1.53-1.49,1.49-2.52-.09-5.04-.03-7.56-.03-.48,0-.96,0-1.56,0v17.94c-1.37,0-2.62,0-3.87,0-2.15,0-4.31.03-6.46-.01-.8-.02-1.06.25-1.05,1.05.03,2.97-.05,5.93.04,8.9.03,1.18-.39,1.43-1.45,1.4-2.68-.06-5.36-.02-8.04-.02-.48,0-.96,0-1.5,0v45.73h11.58v11.61h-22.66v-34.25h-11.28v-12.37h-11.18v12.32c-1.09,0-2.01,0-2.93,0-2.52,0-5.04.04-7.56-.02-.99-.02-1.35.25-1.32,1.29.06,2.92.02,5.85.02,8.77,0,.44,0,.87,0,1.49-1.67,0-3.2,0-4.72,0-1.62,0-3.25-.04-4.87.03-.34.02-.95.44-.95.68-.06,3.73-.04,7.46-.04,11.35h9.65v10.47h-21.3v-45.32h-10.85v-11.35h-11.97v-10.8h-11.98c0-2.03,0-3.89,0-5.74,0-1.5-.05-3.01.02-4.51.04-.93-.31-1.19-1.2-1.17-2.64.04-5.28.02-7.92.01-.32,0-.63-.05-1.07-.08v-11.36H.66c-.22-23.68-.44-47.21-.66-70.83h15.08c.03.47.09.98.09,1.48,0,6.82.03,13.65-.02,20.47,0,1.18.33,1.53,1.51,1.49,2.92-.08,5.83-.03,8.93-.03v12.39c1.05,0,1.94,0,2.82,0,2.56,0,5.12.05,7.68-.02,1.04-.03,1.3.34,1.28,1.33-.05,3.25-.02,6.5-.02,9.75,0,.48,0,.95,0,1.51h20v-12.91h12.64v-10.71h16.66v-11.43c.59-.03,1.06-.07,1.52-.07,4.51,0,9.02-.04,13.53.02,1.15.02,1.45-.36,1.42-1.46-.07-2.6-.02-5.2-.02-7.8,0-.43,0-.87,0-1.41h11.45V11.57h10.76V0C155.76,0,186.23,0,216.7,0ZM144.17,31.25c4.03.02,7.46-3.37,7.5-7.41.04-4.07-3.43-7.55-7.5-7.53-4.04.02-7.44,3.44-7.44,7.47,0,4.03,3.41,7.45,7.44,7.47Z"/>
  </g>
</svg>