<?xml version="1.0" encoding="utf-8"?>
<!-- Generator: Adobe Illustrator 26.5.0, SVG Export Plug-In . SVG Version: 6.00 Build 0)  -->
<svg version="1.1" xmlns="http://www.w3.org/2000/svg" xmlns:xlink="http://www.w3.org/1999/xlink" x="0px" y="0px"
	 viewBox="0 0 2560 1440" style="enable-background:new 0 0 2560 1440;" xml:space="preserve">
<style type="text/css">
	.st0{fill:#B0CDBB;}
	.st1{fill:#3A5C40;}
	.st2{fill:#42210B;}
	.st3{fill:#D3D1CB;}
	.st4{fill:#736357;}
	.st5{fill:#004537;}
	.st6{fill:#D2D0CA;}
	.st7{fill:#B48838;}
	.st8{fill:#979797;}
	.st9{fill:#754C24;}
	.st10{fill:#D99DB1;}
	.st11{fill:#E4E4E4;}
	.st12{fill:#E0AB8F;}
	.st13{fill:#29A9E0;}
	.st14{fill:#666666;}
	.st15{fill:#978475;}
	.st16{fill:#333333;}
	.st17{fill:#C7C282;}
	.st18{fill:#79AA70;}
	.st19{fill:#1A1A1A;}
	.st20{fill:#22B373;}
</style>
<g id="Layer_1">
	<g>
		<rect x="-18" y="-19" class="st1" width="2595" height="1480"/>
	</g>
</g>
<g id="Layer_2">
	<g>
		<path class="st3" d="M660.6,557.2c0.1-6,0.2-12,0.3-17.9c0-2.3,0.1-4.7-0.4-7c-0.2-1.2-0.6-2.3-0.5-3.5c0.1-2.4,1.7-4.5,2.6-6.8
			c1.8-4.7,0.2-9.7-0.7-14.5c-1.7-8.7,1-10.5,1.5-19.3c1.6,0.6,1.1-6.9,2.5-7.8c0.8-0.5,1.4-1.3,2.2-1.9c2.8-1.9,6.8-0.7,10.3-0.4
			c3.9,0.3,7.7-0.4,11.6-0.9c5.2-0.6,10.4-0.8,15.7-0.7c17.4,0.2,34.6,2.3,51.7,4.9c0.7,0.1,1.6,0.3,2,0.8c0.3,0.3,0.3,0.8,0.3,1.2
			c0.3,4.2,0.6,8.3,0.9,12.5c0.4,5,0.8,10.1,0.2,15.2c-0.7,6.6-3,13.1-2.8,19.7c0.1,3.1,0.7,6.3,0.6,9.4c-0.3,5.4-2.8,10.5-5.4,15.5
			c-1,2-2.2,4.1-4.4,5.2c-1.7,0.9-3.8,1-5.9,1.1c-6.6,0.3-13.3,0.5-19.8-0.6c-4.2-0.7-8.3-2.1-12.5-2.8c-9.8-1.7-20,0-29.7,2
			c-3.3,0.7-6.8,1.4-10.2,1.2c-3.4-0.2-7-1.5-8.7-4"/>
	</g>
	<g>
		<path class="st3" d="M1451.9,481.3c-0.1,6-0.2,12-0.3,17.9c0,2.3-0.1,4.7,0.4,7c0.2,1.2,0.6,2.3,0.5,3.5c-0.1,2.4-1.7,4.5-2.6,6.8
			c-1.8,4.7-0.2,9.7,0.7,14.5c1.7,8.7-1,10.5-1.5,19.3c-1.6-0.6-1.1,6.9-2.5,7.8c-0.8,0.5-1.4,1.3-2.2,1.9
			c-2.8,1.9-6.8,0.7-10.3,0.4c-3.9-0.3-7.7,0.4-11.6,0.9c-5.2,0.6-10.4,0.8-15.7,0.7c-17.4-0.2-34.6-2.3-51.7-4.9
			c-0.7-0.1-1.6-0.3-2-0.8c-0.3-0.3-0.3-0.8-0.3-1.2c-0.3-4.2-0.6-8.3-0.9-12.5c-0.4-5-0.8-10.1-0.2-15.2c0.7-6.6,3-13.1,2.8-19.7
			c-0.1-3.1-0.7-6.3-0.6-9.4c0.3-5.4,2.8-10.5,5.4-15.5c1-2,2.2-4.1,4.4-5.2c1.7-0.9,3.8-1,5.9-1.1c6.6-0.3,13.3-0.5,19.8,0.6
			c4.2,0.7,8.3,2.1,12.5,2.8c9.8,1.7,20,0,29.7-2c3.3-0.7,6.8-1.4,10.2-1.2c3.4,0.2,7,1.5,8.7,4"/>
	</g>
	<g>
		<path class="st3" d="M1470.5,491.5c0.7,3.9-1.6,7.7-2.2,11.6c-0.6,4.2,1,8.4,0.9,12.6c-0.1,4-1.5,7.9-2.2,11.8
			c-1.8,9.9,1.2,20.4,8.2,28.5c1,1.1,2,2.2,3.5,2.9c1.6,0.8,3.6,0.9,5.5,1.1c5.9,0.5,11.9,0.9,17.8,1.4c2,0.2,4.1,0.3,6.1,0
			c1.7-0.3,3.3-0.9,5-1.3c2.5-0.6,5.1-0.8,7.8-0.9c6.8-0.3,13.6,0,20.4,0.7c8,0.9,16.7,2.3,23.5-1.4c4.3-2.4,6.9-6.5,8-10.7
			s0.9-8.6,0.7-13c-0.6-15.1-0.8-30.2-0.4-45.3c0-1.5,0-3.1-1.1-4.2c-0.9-0.9-2.2-1.4-3.5-1.8c-4.8-1.5-9.6-3.1-14.5-4.6
			c-3.2-1-6.9-2.1-10.1-1c-1.2,0.4-2.3,1.1-3.6,1.5c-1.2,0.3-2.5,0.3-3.8,0.3c-13.4-0.4-26.7-0.8-40.1-1.1c-4.5-0.1-9-0.2-13.3,0.9
			c-6.3,1.7-11.4,6.2-13.1,11.6"/>
	</g>
	<g>
		<path class="st3" d="M857.8,478.1c-4.7,0.6-9.2-1.4-13.9-1.8c-5-0.5-10,0.8-15,0.8c-4.8,0-9.4-1.3-14.1-1.9
			c-11.8-1.5-24.3,1-34,6.9c-1.3,0.8-2.7,1.7-3.5,2.9c-0.9,1.4-1.1,3-1.3,4.6c-0.5,5-1.1,10-1.6,14.9c-0.2,1.7-0.4,3.4,0,5.1
			c0.3,1.4,1,2.8,1.5,4.2c0.7,2.1,0.9,4.3,1,6.5c0.3,5.7,0,11.4-0.9,17.1c-1,6.7-2.7,14,1.7,19.7c2.8,3.6,7.8,5.8,12.8,6.7
			c5.1,0.9,10.3,0.7,15.4,0.6c18-0.5,36-0.6,54-0.4c1.8,0,3.7,0,5.1-0.9c1.1-0.7,1.6-1.9,2.1-3c1.8-4,3.7-8.1,5.5-12.1
			c1.2-2.7,2.5-5.8,1.2-8.5c-0.5-1-1.3-2-1.8-3c-0.4-1-0.4-2.1-0.3-3.2c0.5-11.2,0.9-22.4,1.4-33.6c0.2-3.7,0.3-7.6-1.1-11.1
			c-2-5.3-7.4-9.6-13.8-11"/>
	</g>
	<g>
		<path class="st3" d="M1220,564.7c-7.1-0.1-14.3-0.1-21.4-0.2c-2.8,0-5.6-0.1-8.4,0.3c-1.4,0.2-2.8,0.5-4.2,0.4
			c-2.8-0.1-5.4-1.4-8.1-2.2c-5.5-1.5-11.5-0.2-17.3,0.6c-10.4,1.4-12.5-0.9-23-1.3c0.7-1.3-8.2-1-9.3-2.1c-0.7-0.7-1.6-1.2-2.2-1.8
			c-2.2-2.3-0.9-5.7-0.5-8.6c0.4-3.2-0.5-6.5-1.1-9.7c-0.8-4.3-0.9-8.7-0.9-13.1c0.2-14.6,2.7-29,5.8-43.4c0.1-0.6,0.3-1.3,1-1.7
			c0.4-0.2,0.9-0.3,1.4-0.3c5-0.3,9.9-0.5,14.9-0.8c6-0.3,12.1-0.6,18.1-0.2c7.9,0.6,15.6,2.5,23.5,2.4c3.7-0.1,7.5-0.6,11.2-0.5
			c6.4,0.2,12.5,2.4,18.5,4.5c2.4,0.9,4.9,1.8,6.2,3.7c1,1.5,1.2,3.2,1.3,4.9c0.3,5.6,0.6,11.2-0.7,16.6c-0.9,3.5-2.4,7-3.3,10.5
			c-2,8.2,0,16.8,2.3,24.9c0.8,2.8,1.7,5.7,1.4,8.5c-0.2,2.9-1.8,5.9-4.8,7.3"/>
	</g>
	<g>
		<path class="st3" d="M892.6,481c7.1,0.1,14.3,0.1,21.4,0.2c2.8,0,5.6,0.1,8.4-0.3c1.4-0.2,2.8-0.5,4.2-0.4
			c2.8,0.1,5.4,1.4,8.1,2.2c5.5,1.5,11.5,0.2,17.3-0.6c10.4-1.4,12.5,0.9,23,1.3c-0.7,1.3,8.2,1,9.3,2.1c0.7,0.7,1.6,1.2,2.2,1.8
			c2.2,2.3,0.9,5.7,0.5,8.6c-0.4,3.2,0.5,6.5,1.1,9.7c0.8,4.3,0.9,8.7,0.9,13.1c-0.2,14.6-2.7,29-5.8,43.4c-0.1,0.6-0.3,1.3-1,1.7
			c-0.4,0.2-0.9,0.3-1.4,0.3c-5,0.3-9.9,0.5-14.9,0.8c-6,0.3-12.1,0.6-18.1,0.2c-7.9-0.6-15.6-2.5-23.5-2.4
			c-3.7,0.1-7.5,0.6-11.2,0.5c-6.4-0.2-12.5-2.4-18.5-4.5c-2.4-0.9-4.9-1.8-6.2-3.7c-1-1.5-1.2-3.2-1.3-4.9
			c-0.3-5.6-0.6-11.2,0.7-16.6c0.9-3.5,2.4-7,3.3-10.5c2-8.2,0-16.8-2.3-24.9c-0.8-2.8-1.7-5.7-1.4-8.5s1.8-5.9,4.8-7.3"/>
	</g>
	<g>
		<path class="st3" d="M1718.3,561.2c4.7-0.6,9.2,1.4,13.9,1.8c5,0.5,10-0.8,15-0.8c4.8,0,9.4,1.3,14.1,1.9c11.8,1.5,24.3-1,34-6.9
			c1.3-0.8,2.7-1.7,3.5-2.9c0.9-1.4,1.1-3,1.3-4.6c0.5-5,1.1-10,1.6-14.9c0.2-1.7,0.4-3.4,0-5.1c-0.3-1.4-1-2.8-1.5-4.2
			c-0.7-2.1-0.9-4.3-1-6.5c-0.3-5.7,0-11.4,0.9-17.1c1-6.7,2.7-14-1.7-19.7c-2.8-3.6-7.8-5.8-12.8-6.7c-5.1-0.9-10.3-0.7-15.4-0.6
			c-18,0.5-36,0.6-54,0.4c-1.8,0-3.7,0-5.1,0.9c-1.1,0.7-1.6,1.9-2.1,3c-1.8,4-3.7,8.1-5.5,12.1c-1.2,2.7-2.5,5.8-1.2,8.5
			c0.5,1,1.3,2,1.8,3c0.4,1,0.4,2.1,0.3,3.2c-0.5,11.2-0.9,22.4-1.4,33.6c-0.2,3.7-0.3,7.6,1.1,11.1c2,5.3,7.4,9.6,13.8,11"/>
	</g>
	<g>
		<path class="st3" d="M1683.5,558.3c-7.1-0.1-14.3-0.1-21.4-0.2c-2.8,0-5.6-0.1-8.4,0.3c-1.4,0.2-2.8,0.5-4.2,0.4
			c-2.8-0.1-5.4-1.4-8.1-2.2c-5.5-1.5-11.5-0.2-17.3,0.6c-10.4,1.4-12.5-0.9-23-1.3c0.7-1.3-8.2-1-9.3-2.1c-0.7-0.7-1.6-1.2-2.2-1.8
			c-2.2-2.3-0.9-5.7-0.5-8.6c0.4-3.2-0.5-6.5-1.1-9.7c-0.8-4.3-0.9-8.7-0.9-13.1c0.2-14.6,2.7-29,5.8-43.4c0.1-0.6,0.3-1.3,1-1.7
			c0.4-0.2,0.9-0.3,1.4-0.3c5-0.3,9.9-0.5,14.9-0.8c6-0.3,12.1-0.6,18.1-0.2c7.9,0.6,15.6,2.5,23.5,2.4c3.7-0.1,7.5-0.6,11.2-0.5
			c6.4,0.2,12.5,2.4,18.5,4.5c2.4,0.9,4.9,1.8,6.2,3.7c1,1.5,1.2,3.2,1.3,4.9c0.3,5.6,0.6,11.2-0.7,16.6c-0.9,3.5-2.4,7-3.3,10.5
			c-2,8.2,0,16.8,2.3,24.9c0.8,2.8,1.7,5.7,1.4,8.5c-0.2,2.9-1.8,5.9-4.8,7.3"/>
	</g>
	<g>
		<path class="st3" d="M1106.1,550.6c-0.7-3.9,1.6-7.7,2.2-11.6c0.6-4.2-1-8.4-0.9-12.6c0.1-4,1.5-7.9,2.2-11.8
			c1.8-9.9-1.2-20.4-8.2-28.5c-1-1.1-2-2.2-3.5-2.9c-1.6-0.8-3.6-0.9-5.5-1.1c-5.9-0.5-11.9-0.9-17.8-1.4c-2-0.2-4.1-0.3-6.1,0
			c-1.7,0.3-3.3,0.9-5,1.3c-2.5,0.6-5.1,0.8-7.8,0.9c-6.8,0.3-13.6,0-20.4-0.7c-8-0.9-16.7-2.3-23.5,1.4c-4.3,2.4-6.9,6.5-8,10.7
			c-1.1,4.2-0.9,8.6-0.7,13c0.6,15.1,0.8,30.2,0.4,45.3c0,1.5,0,3.1,1.1,4.2c0.9,0.9,2.2,1.4,3.5,1.8c4.8,1.5,9.6,3.1,14.5,4.6
			c3.2,1,6.9,2.1,10.1,1c1.2-0.4,2.3-1.1,3.6-1.5c1.2-0.3,2.5-0.3,3.8-0.3c13.4,0.4,26.7,0.8,40.1,1.1c4.5,0.1,9,0.2,13.3-0.9
			c6.3-1.7,11.4-6.2,13.1-11.6"/>
	</g>
	<g>
		<path class="st3" d="M1253.9,564c4.7-0.6,9.2,1.4,13.9,1.8c5,0.5,10-0.8,15-0.8c4.8,0,9.4,1.3,14.1,1.9c11.8,1.5,24.3-1,34-6.9
			c1.3-0.8,2.7-1.7,3.5-2.9c0.9-1.4,1.1-3,1.3-4.6c0.5-5,1.1-10,1.6-14.9c0.2-1.7,0.4-3.4,0-5.1c-0.3-1.4-1-2.8-1.5-4.2
			c-0.7-2.1-0.9-4.3-1-6.5c-0.3-5.7,0-11.4,0.9-17.1c1-6.7,2.7-14-1.7-19.7c-2.8-3.6-7.8-5.8-12.8-6.7c-5.1-0.9-10.3-0.7-15.4-0.6
			c-18,0.5-36,0.6-54,0.4c-1.8,0-3.7,0-5.1,0.9c-1.1,0.7-1.6,1.9-2.1,3c-1.8,4-3.7,8.1-5.5,12.1c-1.2,2.7-2.5,5.8-1.2,8.5
			c0.5,1,1.3,2,1.8,3c0.4,1,0.4,2.1,0.3,3.2c-0.5,11.2-0.9,22.4-1.4,33.6c-0.2,3.7-0.3,7.6,1.1,11.1c2,5.3,7.4,9.6,13.8,11"/>
	</g>
	<g>
		<path class="st3" d="M485.2,575.6c7.1,0.1,14.3,0.1,21.4,0.2c2.8,0,5.6,0.1,8.4-0.3c1.4-0.2,2.8-0.5,4.2-0.4
			c2.8,0.1,5.4,1.4,8.1,2.2c5.5,1.5,11.5,0.2,17.3-0.6c10.4-1.4,12.5,0.9,23,1.3c-0.7,1.3,8.2,1,9.3,2.1c0.7,0.7,1.6,1.2,2.2,1.8
			c2.2,2.3,0.9,5.7,0.5,8.6c-0.4,3.2,0.5,6.5,1.1,9.7c0.8,4.3,0.9,8.7,0.9,13.1c-0.2,14.6-2.7,29-5.8,43.4c-0.1,0.6-0.3,1.3-1,1.7
			c-0.4,0.2-0.9,0.3-1.4,0.3c-5,0.3-9.9,0.5-14.9,0.8c-6,0.3-12.1,0.6-18.1,0.2c-7.9-0.6-15.6-2.5-23.5-2.4
			c-3.7,0.1-7.5,0.6-11.2,0.5c-6.4-0.2-12.5-2.4-18.5-4.5c-2.4-0.9-4.9-1.8-6.2-3.7c-1-1.5-1.2-3.2-1.3-4.9
			c-0.3-5.6-0.6-11.2,0.7-16.6c0.9-3.5,2.4-7,3.3-10.5c2-8.2,0-16.8-2.3-24.9c-0.8-2.8-1.7-5.7-1.4-8.5c0.2-2.9,1.8-5.9,4.8-7.3"/>
	</g>
	<g>
		<path class="st3" d="M717.4,655.4c0.1-6,0.2-12,0.3-17.9c0-2.3,0.1-4.7-0.4-7c-0.2-1.2-0.6-2.3-0.5-3.5c0.1-2.4,1.7-4.5,2.6-6.8
			c1.8-4.7,0.2-9.7-0.7-14.5c-1.7-8.7,1-10.5,1.5-19.3c1.6,0.6,1.1-6.9,2.5-7.8c0.8-0.5,1.4-1.3,2.2-1.9c2.8-1.9,6.8-0.7,10.3-0.4
			c3.9,0.3,7.7-0.4,11.6-0.9c5.2-0.6,10.4-0.8,15.7-0.7c17.4,0.2,34.6,2.3,51.7,4.9c0.7,0.1,1.6,0.3,2,0.8c0.3,0.3,0.3,0.8,0.3,1.2
			c0.3,4.2,0.6,8.3,0.9,12.5c0.4,5,0.8,10.1,0.2,15.2c-0.7,6.6-3,13.1-2.8,19.7c0.1,3.1,0.7,6.3,0.6,9.4c-0.3,5.4-2.8,10.5-5.4,15.5
			c-1,2-2.2,4.1-4.4,5.2c-1.7,0.9-3.8,1-5.9,1.1c-6.6,0.3-13.3,0.5-19.8-0.6c-4.2-0.7-8.3-2.1-12.5-2.8c-9.8-1.7-20,0-29.7,2
			c-3.3,0.7-6.8,1.4-10.2,1.2s-7-1.5-8.7-4"/>
	</g>
	<g>
		<path class="st3" d="M1508.7,579.5c-0.1,6-0.2,12-0.3,17.9c0,2.3-0.1,4.7,0.4,7c0.2,1.2,0.6,2.3,0.5,3.5c-0.1,2.4-1.7,4.5-2.6,6.8
			c-1.8,4.7-0.2,9.7,0.7,14.5c1.7,8.7-1,10.5-1.5,19.3c-1.6-0.6-1.1,6.9-2.5,7.8c-0.8,0.5-1.4,1.3-2.2,1.9
			c-2.8,1.9-6.8,0.7-10.3,0.4c-3.9-0.3-7.7,0.4-11.6,0.9c-5.2,0.6-10.4,0.8-15.7,0.7c-17.4-0.2-34.6-2.3-51.7-4.9
			c-0.7-0.1-1.6-0.3-2-0.8c-0.3-0.3-0.3-0.8-0.3-1.2c-0.3-4.2-0.6-8.3-0.9-12.5c-0.4-5-0.8-10.1-0.2-15.2c0.7-6.6,3-13.1,2.8-19.7
			c-0.1-3.1-0.7-6.3-0.6-9.4c0.3-5.4,2.8-10.5,5.4-15.5c1-2,2.2-4.1,4.4-5.2c1.7-0.9,3.8-1,5.9-1.1c6.6-0.3,13.3-0.5,19.8,0.6
			c4.2,0.7,8.3,2.1,12.5,2.8c9.8,1.7,20,0,29.7-2c3.3-0.7,6.8-1.4,10.2-1.2c3.4,0.2,7,1.5,8.7,4"/>
	</g>
	<g>
		<path class="st3" d="M1527.4,589.7c0.7,3.9-1.6,7.7-2.2,11.6c-0.6,4.2,1,8.4,0.9,12.6c-0.1,4-1.5,7.9-2.2,11.8
			c-1.8,9.9,1.2,20.4,8.2,28.5c1,1.1,2,2.2,3.5,2.9c1.6,0.8,3.6,0.9,5.5,1.1c5.9,0.5,11.9,0.9,17.8,1.4c2,0.2,4.1,0.3,6.1,0
			c1.7-0.3,3.3-0.9,5-1.3c2.5-0.6,5.1-0.8,7.8-0.9c6.8-0.3,13.6,0,20.4,0.7c8,0.9,16.7,2.3,23.5-1.4c4.3-2.4,6.9-6.5,8-10.7
			c1.1-4.2,0.9-8.6,0.7-13c-0.6-15.1-0.8-30.2-0.4-45.3c0-1.5,0-3.1-1.1-4.2c-0.9-0.9-2.2-1.4-3.5-1.8c-4.8-1.5-9.6-3.1-14.5-4.6
			c-3.2-1-6.9-2.1-10.1-1c-1.2,0.4-2.3,1.1-3.6,1.5c-1.2,0.3-2.5,0.3-3.8,0.3c-13.4-0.4-26.7-0.8-40.1-1.1c-4.5-0.1-9-0.2-13.3,0.9
			c-6.3,1.7-11.4,6.2-13.1,11.6"/>
	</g>
	<g>
		<path class="st3" d="M914.6,576.3c-4.7,0.6-9.2-1.4-13.9-1.8c-5-0.5-10,0.8-15,0.8c-4.8,0-9.4-1.3-14.1-1.9
			c-11.8-1.5-24.3,1-34,6.9c-1.3,0.8-2.7,1.7-3.5,2.9c-0.9,1.4-1.1,3-1.3,4.6c-0.5,5-1.1,10-1.6,14.9c-0.2,1.7-0.4,3.4,0,5.1
			c0.3,1.4,1,2.8,1.5,4.2c0.7,2.1,0.9,4.3,1,6.5c0.3,5.7,0,11.4-0.9,17.1c-1,6.7-2.7,14,1.7,19.7c2.8,3.6,7.8,5.8,12.8,6.7
			s10.3,0.7,15.4,0.6c18-0.5,36-0.6,54-0.4c1.8,0,3.7,0,5.1-0.9c1.1-0.7,1.6-1.9,2.1-3c1.8-4,3.7-8.1,5.5-12.1
			c1.2-2.7,2.5-5.8,1.2-8.5c-0.5-1-1.3-2-1.8-3c-0.4-1-0.4-2.1-0.3-3.2c0.5-11.2,0.9-22.4,1.4-33.6c0.2-3.7,0.3-7.6-1.1-11.1
			c-2-5.3-7.4-9.6-13.8-11"/>
	</g>
	<g>
		<path class="st3" d="M1276.8,662.9c-7.1-0.1-14.3-0.1-21.4-0.2c-2.8,0-5.6-0.1-8.4,0.3c-1.4,0.2-2.8,0.5-4.2,0.4
			c-2.8-0.1-5.4-1.4-8.1-2.2c-5.5-1.5-11.5-0.2-17.3,0.6c-10.4,1.4-12.5-0.9-23-1.3c0.7-1.3-8.2-1-9.3-2.1c-0.7-0.7-1.6-1.2-2.2-1.8
			c-2.2-2.3-0.9-5.7-0.5-8.6c0.4-3.2-0.5-6.5-1.1-9.7c-0.8-4.3-0.9-8.7-0.9-13.1c0.2-14.6,2.7-29,5.8-43.4c0.1-0.6,0.3-1.3,1-1.7
			c0.4-0.2,0.9-0.3,1.4-0.3c5-0.3,9.9-0.5,14.9-0.8c6-0.3,12.1-0.6,18.1-0.2c7.9,0.6,15.6,2.5,23.5,2.4c3.7-0.1,7.5-0.6,11.2-0.5
			c6.4,0.2,12.5,2.4,18.5,4.5c2.4,0.9,4.9,1.8,6.2,3.7c1,1.5,1.2,3.2,1.3,4.9c0.3,5.6,0.6,11.2-0.7,16.6c-0.9,3.5-2.4,7-3.3,10.5
			c-2,8.2,0,16.8,2.3,24.9c0.8,2.8,1.7,5.7,1.4,8.5c-0.2,2.9-1.8,5.9-4.8,7.3"/>
	</g>
	<g>
		<path class="st3" d="M949.4,579.2c7.1,0.1,14.3,0.1,21.4,0.2c2.8,0,5.6,0.1,8.4-0.3c1.4-0.2,2.8-0.5,4.2-0.4
			c2.8,0.1,5.4,1.4,8.1,2.2c5.5,1.5,11.5,0.2,17.3-0.6c10.4-1.4,12.5,0.9,23,1.3c-0.7,1.3,8.2,1,9.3,2.1c0.7,0.7,1.6,1.2,2.2,1.8
			c2.2,2.3,0.9,5.7,0.5,8.6c-0.4,3.2,0.5,6.5,1.1,9.7c0.8,4.3,0.9,8.7,0.9,13.1c-0.2,14.6-2.7,29-5.8,43.4c-0.1,0.6-0.3,1.3-1,1.7
			c-0.4,0.2-0.9,0.3-1.4,0.3c-5,0.3-9.9,0.5-14.9,0.8c-6,0.3-12.1,0.6-18.1,0.2c-7.9-0.6-15.6-2.5-23.5-2.4
			c-3.7,0.1-7.5,0.6-11.2,0.5c-6.4-0.2-12.5-2.4-18.5-4.5c-2.4-0.9-4.9-1.8-6.2-3.7c-1-1.5-1.2-3.2-1.3-4.9
			c-0.3-5.6-0.6-11.2,0.7-16.6c0.9-3.5,2.4-7,3.3-10.5c2-8.2,0-16.8-2.3-24.9c-0.8-2.8-1.7-5.7-1.4-8.5c0.2-2.9,1.8-5.9,4.8-7.3"/>
	</g>
	<g>
		<path class="st3" d="M1972.2,580.2c-0.1,6-0.2,12-0.3,17.9c0,2.3-0.1,4.7,0.4,7c0.2,1.2,0.6,2.3,0.5,3.5c-0.1,2.4-1.7,4.5-2.6,6.8
			c-1.8,4.7-0.2,9.7,0.7,14.5c1.7,8.7-1,10.5-1.5,19.3c-1.6-0.6-1.1,6.9-2.5,7.8c-0.8,0.5-1.4,1.3-2.2,1.9
			c-2.8,1.9-6.8,0.7-10.3,0.4c-3.9-0.3-7.7,0.4-11.6,0.9c-5.2,0.6-10.4,0.8-15.7,0.7c-17.4-0.2-34.6-2.3-51.7-4.9
			c-0.7-0.1-1.6-0.3-2-0.8c-0.3-0.3-0.3-0.8-0.3-1.2c-0.3-4.2-0.6-8.3-0.9-12.5c-0.4-5-0.8-10.1-0.2-15.2c0.7-6.6,3-13.1,2.8-19.7
			c-0.1-3.1-0.7-6.3-0.6-9.4c0.3-5.4,2.8-10.5,5.4-15.5c1-2,2.2-4.1,4.4-5.2c1.7-0.9,3.8-1,5.9-1.1c6.6-0.3,13.3-0.5,19.8,0.6
			c4.2,0.7,8.3,2.1,12.5,2.8c9.8,1.7,20,0,29.7-2c3.3-0.7,6.8-1.4,10.2-1.2c3.4,0.2,7,1.5,8.7,4"/>
	</g>
	<g>
		<path class="st3" d="M1775.1,659.4c4.7-0.6,9.2,1.4,13.9,1.8c5,0.5,10-0.8,15-0.8c4.8,0,9.4,1.3,14.1,1.9c11.8,1.5,24.3-1,34-6.9
			c1.3-0.8,2.7-1.7,3.5-2.9c0.9-1.4,1.1-3,1.3-4.6c0.5-5,1.1-10,1.6-14.9c0.2-1.7,0.4-3.4,0-5.1c-0.3-1.4-1-2.8-1.5-4.2
			c-0.7-2.1-0.9-4.3-1-6.5c-0.3-5.7,0-11.4,0.9-17.1c1-6.7,2.7-14-1.7-19.7c-2.8-3.6-7.8-5.8-12.8-6.7c-5.1-0.9-10.3-0.7-15.4-0.6
			c-18,0.5-36,0.6-54,0.4c-1.8,0-3.7,0-5.1,0.9c-1.1,0.7-1.6,1.9-2.1,3c-1.8,4-3.7,8.1-5.5,12.1c-1.2,2.7-2.5,5.8-1.2,8.5
			c0.5,1,1.3,2,1.8,3c0.4,1,0.4,2.1,0.3,3.2c-0.5,11.2-0.9,22.4-1.4,33.6c-0.2,3.7-0.3,7.6,1.1,11.1c2,5.3,7.4,9.6,13.8,11"/>
	</g>
	<g>
		<path class="st3" d="M1740.3,656.5c-7.1-0.1-14.3-0.1-21.4-0.2c-2.8,0-5.6-0.1-8.4,0.3c-1.4,0.2-2.8,0.5-4.2,0.4
			c-2.8-0.1-5.4-1.4-8.1-2.2c-5.5-1.5-11.5-0.2-17.3,0.6c-10.4,1.4-12.5-0.9-23-1.3c0.7-1.3-8.2-1-9.3-2.1c-0.7-0.7-1.6-1.2-2.2-1.8
			c-2.2-2.3-0.9-5.7-0.5-8.6c0.4-3.2-0.5-6.5-1.1-9.7c-0.8-4.3-0.9-8.7-0.9-13.1c0.2-14.6,2.7-29,5.8-43.4c0.1-0.6,0.3-1.3,1-1.7
			c0.4-0.2,0.9-0.3,1.4-0.3c5-0.3,9.9-0.5,14.9-0.8c6-0.3,12.1-0.6,18.1-0.2c7.9,0.6,15.6,2.5,23.5,2.4c3.7-0.1,7.5-0.6,11.2-0.5
			c6.4,0.2,12.5,2.4,18.5,4.5c2.4,0.9,4.9,1.8,6.2,3.7c1,1.5,1.2,3.2,1.3,4.9c0.3,5.6,0.6,11.2-0.7,16.6c-0.9,3.5-2.4,7-3.3,10.5
			c-2,8.2,0,16.8,2.3,24.9c0.8,2.8,1.7,5.7,1.4,8.5c-0.2,2.9-1.8,5.9-4.8,7.3"/>
	</g>
	<g>
		<path class="st3" d="M1163,648.8c-0.7-3.9,1.6-7.7,2.2-11.6c0.6-4.2-1-8.4-0.9-12.6c0.1-4,1.5-7.9,2.2-11.8
			c1.8-9.9-1.2-20.4-8.2-28.5c-1-1.1-2-2.2-3.5-2.9c-1.6-0.8-3.6-0.9-5.5-1.1c-5.9-0.5-11.9-0.9-17.8-1.4c-2-0.2-4.1-0.3-6.1,0
			c-1.7,0.3-3.3,0.9-5,1.3c-2.5,0.6-5.1,0.8-7.8,0.9c-6.8,0.3-13.6,0-20.4-0.7c-8-0.9-16.7-2.3-23.5,1.4c-4.3,2.4-6.9,6.5-8,10.7
			s-0.9,8.6-0.7,13c0.6,15.1,0.8,30.2,0.4,45.3c0,1.5,0,3.1,1.1,4.2c0.9,0.9,2.2,1.4,3.5,1.8c4.8,1.5,9.6,3.1,14.5,4.6
			c3.2,1,6.9,2.1,10.1,1c1.2-0.4,2.3-1.1,3.6-1.5c1.2-0.3,2.5-0.3,3.8-0.3c13.4,0.4,26.7,0.8,40.1,1.1c4.5,0.1,9,0.2,13.3-0.9
			c6.3-1.7,11.4-6.2,13.1-11.6"/>
	</g>
	<g>
		<path class="st3" d="M1310.7,662.2c4.7-0.6,9.2,1.4,13.9,1.8c5,0.5,10-0.8,15-0.8c4.8,0,9.4,1.3,14.1,1.9c11.8,1.5,24.3-1,34-6.9
			c1.3-0.8,2.7-1.7,3.5-2.9c0.9-1.4,1.1-3,1.3-4.6c0.5-5,1.1-10,1.6-14.9c0.2-1.7,0.4-3.4,0-5.1c-0.3-1.4-1-2.8-1.5-4.2
			c-0.7-2.1-0.9-4.3-1-6.5c-0.3-5.7,0-11.4,0.9-17.1c1-6.7,2.7-14-1.7-19.7c-2.8-3.6-7.8-5.8-12.8-6.7c-5.1-0.9-10.3-0.7-15.4-0.6
			c-18,0.5-36,0.6-54,0.4c-1.8,0-3.7,0-5.1,0.9c-1.1,0.7-1.6,1.9-2.1,3c-1.8,4-3.7,8.1-5.5,12.1c-1.2,2.7-2.5,5.8-1.2,8.5
			c0.5,1,1.3,2,1.8,3c0.4,1,0.4,2.1,0.3,3.2c-0.5,11.2-0.9,22.4-1.4,33.6c-0.2,3.7-0.3,7.6,1.1,11.1c2,5.3,7.4,9.6,13.8,11"/>
	</g>
	<g>
		<path class="st3" d="M428.4,876.8c7.1,0.1,14.3,0.1,21.4,0.2c2.8,0,5.6,0.1,8.4-0.3c1.4-0.2,2.8-0.5,4.2-0.4
			c2.8,0.1,5.4,1.4,8.1,2.2c5.5,1.5,11.5,0.2,17.3-0.6c10.4-1.4,12.5,0.9,23,1.3c-0.7,1.3,8.2,1,9.3,2.1c0.7,0.7,1.6,1.2,2.2,1.8
			c2.2,2.3,0.9,5.7,0.5,8.6c-0.4,3.2,0.5,6.5,1.1,9.7c0.8,4.3,0.9,8.7,0.9,13.1c-0.2,14.6-2.7,29-5.8,43.4c-0.1,0.6-0.3,1.3-1,1.7
			c-0.4,0.2-0.9,0.3-1.4,0.3c-5,0.3-9.9,0.5-14.9,0.8c-6,0.3-12.1,0.6-18.1,0.2c-7.9-0.6-15.6-2.5-23.5-2.4
			c-3.7,0.1-7.5,0.6-11.2,0.5c-6.4-0.2-12.5-2.4-18.5-4.5c-2.4-0.9-4.9-1.8-6.2-3.7c-1-1.5-1.2-3.2-1.3-4.9
			c-0.3-5.6-0.6-11.2,0.7-16.6c0.9-3.5,2.4-7,3.3-10.5c2-8.2,0-16.8-2.3-24.9c-0.8-2.8-1.7-5.7-1.4-8.5c0.2-2.9,1.8-5.9,4.8-7.3"/>
	</g>
	<g>
		<path class="st3" d="M660.6,956.6c0.1-6,0.2-12,0.3-17.9c0-2.3,0.1-4.7-0.4-7c-0.2-1.2-0.6-2.3-0.5-3.5c0.1-2.4,1.7-4.5,2.6-6.8
			c1.8-4.7,0.2-9.7-0.7-14.5c-1.7-8.7,1-10.5,1.5-19.3c1.6,0.6,1.1-6.9,2.5-7.8c0.8-0.5,1.4-1.3,2.2-1.9c2.8-1.9,6.8-0.7,10.3-0.4
			c3.9,0.3,7.7-0.4,11.6-0.9c5.2-0.6,10.4-0.8,15.7-0.7c17.4,0.2,34.6,2.3,51.7,4.9c0.7,0.1,1.6,0.3,2,0.8c0.3,0.3,0.3,0.8,0.3,1.2
			c0.3,4.2,0.6,8.3,0.9,12.5c0.4,5,0.8,10.1,0.2,15.2c-0.7,6.6-3,13.1-2.8,19.7c0.1,3.1,0.7,6.3,0.6,9.4c-0.3,5.4-2.8,10.5-5.4,15.5
			c-1,2-2.2,4.1-4.4,5.2c-1.7,0.9-3.8,1-5.9,1.1c-6.6,0.3-13.3,0.5-19.8-0.6c-4.2-0.7-8.3-2.1-12.5-2.8c-9.8-1.7-20,0-29.7,2
			c-3.3,0.7-6.8,1.4-10.2,1.2c-3.4-0.2-7-1.5-8.7-4"/>
	</g>
	<g>
		<path class="st3" d="M542.3,890.9c0.7,3.9-1.6,7.7-2.2,11.6c-0.6,4.2,1,8.4,0.9,12.6c-0.1,4-1.5,7.9-2.2,11.8
			c-1.8,9.9,1.2,20.4,8.2,28.5c1,1.1,2,2.2,3.5,2.9c1.6,0.8,3.6,0.9,5.5,1.1c5.9,0.5,11.9,0.9,17.8,1.4c2,0.2,4.1,0.3,6.1,0
			c1.7-0.3,3.3-0.9,5-1.3c2.5-0.6,5.1-0.8,7.8-0.9c6.8-0.3,13.6,0,20.4,0.7c8,0.9,16.7,2.3,23.5-1.4c4.3-2.4,6.9-6.5,8-10.7
			s0.9-8.6,0.7-13c-0.6-15.1-0.8-30.2-0.4-45.3c0-1.5,0-3.1-1.1-4.2c-0.9-0.9-2.2-1.4-3.5-1.8c-4.8-1.5-9.6-3.1-14.5-4.6
			c-3.2-1-6.9-2.1-10.1-1c-1.2,0.4-2.3,1.1-3.6,1.5c-1.2,0.3-2.5,0.3-3.8,0.3c-13.4-0.4-26.7-0.8-40.1-1.1c-4.5-0.1-9-0.2-13.3,0.9
			c-6.3,1.7-11.4,6.2-13.1,11.6"/>
	</g>
	<g>
		<path class="st3" d="M1451.9,880.7c-0.1,6-0.2,12-0.3,17.9c0,2.3-0.1,4.7,0.4,7c0.2,1.2,0.6,2.3,0.5,3.5c-0.1,2.4-1.7,4.5-2.6,6.8
			c-1.8,4.7-0.2,9.7,0.7,14.5c1.7,8.7-1,10.5-1.5,19.3c-1.6-0.6-1.1,6.9-2.5,7.8c-0.8,0.5-1.4,1.3-2.2,1.9
			c-2.8,1.9-6.8,0.7-10.3,0.4c-3.9-0.3-7.7,0.4-11.6,0.9c-5.2,0.6-10.4,0.8-15.7,0.7c-17.4-0.2-34.6-2.3-51.7-4.9
			c-0.7-0.1-1.6-0.3-2-0.8c-0.3-0.3-0.3-0.8-0.3-1.2c-0.3-4.2-0.6-8.3-0.9-12.5c-0.4-5-0.8-10.1-0.2-15.2c0.7-6.6,3-13.1,2.8-19.7
			c-0.1-3.1-0.7-6.3-0.6-9.4c0.3-5.4,2.8-10.5,5.4-15.5c1-2,2.2-4.1,4.4-5.2c1.7-0.9,3.8-1,5.9-1.1c6.6-0.3,13.3-0.5,19.8,0.6
			c4.2,0.7,8.3,2.1,12.5,2.8c9.8,1.7,20,0,29.7-2c3.3-0.7,6.8-1.4,10.2-1.2s7,1.5,8.7,4"/>
	</g>
	<g>
		<path class="st3" d="M1470.5,890.9c0.7,3.9-1.6,7.7-2.2,11.6c-0.6,4.2,1,8.4,0.9,12.6c-0.1,4-1.5,7.9-2.2,11.8
			c-1.8,9.9,1.2,20.4,8.2,28.5c1,1.1,2,2.2,3.5,2.9c1.6,0.8,3.6,0.9,5.5,1.1c5.9,0.5,11.9,0.9,17.8,1.4c2,0.2,4.1,0.3,6.1,0
			c1.7-0.3,3.3-0.9,5-1.3c2.5-0.6,5.1-0.8,7.8-0.9c6.8-0.3,13.6,0,20.4,0.7c8,0.9,16.7,2.3,23.5-1.4c4.3-2.4,6.9-6.5,8-10.7
			s0.9-8.6,0.7-13c-0.6-15.1-0.8-30.2-0.4-45.3c0-1.5,0-3.1-1.1-4.2c-0.9-0.9-2.2-1.4-3.5-1.8c-4.8-1.5-9.6-3.1-14.5-4.6
			c-3.2-1-6.9-2.1-10.1-1c-1.2,0.4-2.3,1.1-3.6,1.5c-1.2,0.3-2.5,0.3-3.8,0.3c-13.4-0.4-26.7-0.8-40.1-1.1c-4.5-0.1-9-0.2-13.3,0.9
			c-6.3,1.7-11.4,6.2-13.1,11.6"/>
	</g>
	<g>
		<path class="st3" d="M1220,964.1c-7.1-0.1-14.3-0.1-21.4-0.2c-2.8,0-5.6-0.1-8.4,0.3c-1.4,0.2-2.8,0.5-4.2,0.4
			c-2.8-0.1-5.4-1.4-8.1-2.2c-5.5-1.5-11.5-0.2-17.3,0.6c-10.4,1.4-12.5-0.9-23-1.3c0.7-1.3-8.2-1-9.3-2.1c-0.7-0.7-1.6-1.2-2.2-1.8
			c-2.2-2.3-0.9-5.7-0.5-8.6c0.4-3.2-0.5-6.5-1.1-9.7c-0.8-4.3-0.9-8.7-0.9-13.1c0.2-14.6,2.7-29,5.8-43.4c0.1-0.6,0.3-1.3,1-1.7
			c0.4-0.2,0.9-0.3,1.4-0.3c5-0.3,9.9-0.5,14.9-0.8c6-0.3,12.1-0.6,18.1-0.2c7.9,0.6,15.6,2.5,23.5,2.4c3.7-0.1,7.5-0.6,11.2-0.5
			c6.4,0.2,12.5,2.4,18.5,4.5c2.4,0.9,4.9,1.8,6.2,3.7c1,1.5,1.2,3.2,1.3,4.9c0.3,5.6,0.6,11.2-0.7,16.6c-0.9,3.5-2.4,7-3.3,10.5
			c-2,8.2,0,16.8,2.3,24.9c0.8,2.8,1.7,5.7,1.4,8.5s-1.8,5.9-4.8,7.3"/>
	</g>
	<g>
		<path class="st3" d="M892.6,880.4c7.1,0.1,14.3,0.1,21.4,0.2c2.8,0,5.6,0.1,8.4-0.3c1.4-0.2,2.8-0.5,4.2-0.4
			c2.8,0.1,5.4,1.4,8.1,2.2c5.5,1.5,11.5,0.2,17.3-0.6c10.4-1.4,12.5,0.9,23,1.3c-0.7,1.3,8.2,1,9.3,2.1c0.7,0.7,1.6,1.2,2.2,1.8
			c2.2,2.3,0.9,5.7,0.5,8.6c-0.4,3.2,0.5,6.5,1.1,9.7c0.8,4.3,0.9,8.7,0.9,13.1c-0.2,14.6-2.7,29-5.8,43.4c-0.1,0.6-0.3,1.3-1,1.7
			c-0.4,0.2-0.9,0.3-1.4,0.3c-5,0.3-9.9,0.5-14.9,0.8c-6,0.3-12.1,0.6-18.1,0.2c-7.9-0.6-15.6-2.5-23.5-2.4
			c-3.7,0.1-7.5,0.6-11.2,0.5c-6.4-0.2-12.5-2.4-18.5-4.5c-2.4-0.9-4.9-1.8-6.2-3.7c-1-1.5-1.2-3.2-1.3-4.9
			c-0.3-5.6-0.6-11.2,0.7-16.6c0.9-3.5,2.4-7,3.3-10.5c2-8.2,0-16.8-2.3-24.9c-0.8-2.8-1.7-5.7-1.4-8.5c0.2-2.9,1.8-5.9,4.8-7.3"/>
	</g>
	<g>
		<path class="st3" d="M1915.4,881.4c-0.1,6-0.2,12-0.3,17.9c0,2.3-0.1,4.7,0.4,7c0.2,1.2,0.6,2.3,0.5,3.5c-0.1,2.4-1.7,4.5-2.6,6.8
			c-1.8,4.7-0.2,9.7,0.7,14.5c1.7,8.7-1,10.5-1.5,19.3c-1.6-0.6-1.1,6.9-2.5,7.8c-0.8,0.5-1.4,1.3-2.2,1.9
			c-2.8,1.9-6.8,0.7-10.3,0.4c-3.9-0.3-7.7,0.4-11.6,0.9c-5.2,0.6-10.4,0.8-15.7,0.7c-17.4-0.2-34.6-2.3-51.7-4.9
			c-0.7-0.1-1.6-0.3-2-0.8c-0.3-0.3-0.3-0.8-0.3-1.2c-0.3-4.2-0.6-8.3-0.9-12.5c-0.4-5-0.8-10.1-0.2-15.2c0.7-6.6,3-13.1,2.8-19.7
			c-0.1-3.1-0.7-6.3-0.6-9.4c0.3-5.4,2.8-10.5,5.4-15.5c1-2,2.2-4.1,4.4-5.2c1.7-0.9,3.8-1,5.9-1.1c6.6-0.3,13.3-0.5,19.8,0.6
			c4.2,0.7,8.3,2.1,12.5,2.8c9.8,1.7,20,0,29.7-2c3.3-0.7,6.8-1.4,10.2-1.2s7,1.5,8.7,4"/>
	</g>
	<g>
		<path class="st3" d="M2033.8,947.2c-0.7-3.9,1.6-7.7,2.2-11.6c0.6-4.2-1-8.4-0.9-12.6c0.1-4,1.5-7.9,2.2-11.8
			c1.8-9.9-1.2-20.4-8.2-28.5c-1-1.1-2-2.2-3.5-2.9c-1.6-0.8-3.6-0.9-5.5-1.1c-5.9-0.5-11.9-0.9-17.8-1.4c-2-0.2-4.1-0.3-6.1,0
			c-1.7,0.3-3.3,0.9-5,1.3c-2.5,0.6-5.1,0.8-7.8,0.9c-6.8,0.3-13.6,0-20.4-0.7c-8-0.9-16.7-2.3-23.5,1.4c-4.3,2.4-6.9,6.5-8,10.7
			s-0.9,8.6-0.7,13c0.6,15.1,0.8,30.2,0.4,45.3c0,1.5,0,3.1,1.1,4.2c0.9,0.9,2.2,1.4,3.5,1.8c4.8,1.5,9.6,3.1,14.5,4.6
			c3.2,1,6.9,2.1,10.1,1c1.2-0.4,2.3-1.1,3.6-1.5c1.2-0.3,2.5-0.3,3.8-0.3c13.4,0.4,26.7,0.8,40.1,1.1c4.5,0.1,9,0.2,13.3-0.9
			c6.3-1.7,11.4-6.2,13.1-11.6"/>
	</g>
	<g>
		<path class="st3" d="M1718.3,960.6c4.7-0.6,9.2,1.4,13.9,1.8c5,0.5,10-0.8,15-0.8c4.8,0,9.4,1.3,14.1,1.9c11.8,1.5,24.3-1,34-6.9
			c1.3-0.8,2.7-1.7,3.5-2.9c0.9-1.4,1.1-3,1.3-4.6c0.5-5,1.1-10,1.6-14.9c0.2-1.7,0.4-3.4,0-5.1c-0.3-1.4-1-2.8-1.5-4.2
			c-0.7-2.1-0.9-4.3-1-6.5c-0.3-5.7,0-11.4,0.9-17.1c1-6.7,2.7-14-1.7-19.7c-2.8-3.6-7.8-5.8-12.8-6.7c-5.1-0.9-10.3-0.7-15.4-0.6
			c-18,0.5-36,0.6-54,0.4c-1.8,0-3.7,0-5.1,0.9c-1.1,0.7-1.6,1.9-2.1,3c-1.8,4-3.7,8.1-5.5,12.1c-1.2,2.7-2.5,5.8-1.2,8.5
			c0.5,1,1.3,2,1.8,3c0.4,1,0.4,2.1,0.3,3.2c-0.5,11.2-0.9,22.4-1.4,33.6c-0.2,3.7-0.3,7.6,1.1,11.1c2,5.3,7.4,9.6,13.8,11"/>
	</g>
	<g>
		<path class="st3" d="M1683.5,957.6c-7.1-0.1-14.3-0.1-21.4-0.2c-2.8,0-5.6-0.1-8.4,0.3c-1.4,0.2-2.8,0.5-4.2,0.4
			c-2.8-0.1-5.4-1.4-8.1-2.2c-5.5-1.5-11.5-0.2-17.3,0.6c-10.4,1.4-12.5-0.9-23-1.3c0.7-1.3-8.2-1-9.3-2.1c-0.7-0.7-1.6-1.2-2.2-1.8
			c-2.2-2.3-0.9-5.7-0.5-8.6c0.4-3.2-0.5-6.5-1.1-9.7c-0.8-4.3-0.9-8.7-0.9-13.1c0.2-14.6,2.7-29,5.8-43.4c0.1-0.6,0.3-1.3,1-1.7
			c0.4-0.2,0.9-0.3,1.4-0.3c5-0.3,9.9-0.5,14.9-0.8c6-0.3,12.1-0.6,18.1-0.2c7.9,0.6,15.6,2.5,23.5,2.4c3.7-0.1,7.5-0.6,11.2-0.5
			c6.4,0.2,12.5,2.4,18.5,4.5c2.4,0.9,4.9,1.8,6.2,3.7c1,1.5,1.2,3.2,1.3,4.9c0.3,5.6,0.6,11.2-0.7,16.6c-0.9,3.5-2.4,7-3.3,10.5
			c-2,8.2,0,16.8,2.3,24.9c0.8,2.8,1.7,5.7,1.4,8.5c-0.2,2.9-1.8,5.9-4.8,7.3"/>
	</g>
	<g>
		<path class="st3" d="M1106.1,950c-0.7-3.9,1.6-7.7,2.2-11.6c0.6-4.2-1-8.4-0.9-12.6c0.1-4,1.5-7.9,2.2-11.8
			c1.8-9.9-1.2-20.4-8.2-28.5c-1-1.1-2-2.2-3.5-2.9c-1.6-0.8-3.6-0.9-5.5-1.1c-5.9-0.5-11.9-0.9-17.8-1.4c-2-0.2-4.1-0.3-6.1,0
			c-1.7,0.3-3.3,0.9-5,1.3c-2.5,0.6-5.1,0.8-7.8,0.9c-6.8,0.3-13.6,0-20.4-0.7c-8-0.9-16.7-2.3-23.5,1.4c-4.3,2.4-6.9,6.5-8,10.7
			c-1.1,4.2-0.9,8.6-0.7,13c0.6,15.1,0.8,30.2,0.4,45.3c0,1.5,0,3.1,1.1,4.2c0.9,0.9,2.2,1.4,3.5,1.8c4.8,1.5,9.6,3.1,14.5,4.6
			c3.2,1,6.9,2.1,10.1,1c1.2-0.4,2.3-1.1,3.6-1.5c1.2-0.3,2.5-0.3,3.8-0.3c13.4,0.4,26.7,0.8,40.1,1.1c4.5,0.1,9,0.2,13.3-0.9
			c6.3-1.7,11.4-6.2,13.1-11.6"/>
	</g>
	<g>
		<path class="st3" d="M1253.9,963.4c4.7-0.6,9.2,1.4,13.9,1.8c5,0.5,10-0.8,15-0.8c4.8,0,9.4,1.3,14.1,1.9c11.8,1.5,24.3-1,34-6.9
			c1.3-0.8,2.7-1.7,3.5-2.9c0.9-1.4,1.1-3,1.3-4.6c0.5-5,1.1-10,1.6-14.9c0.2-1.7,0.4-3.4,0-5.1c-0.3-1.4-1-2.8-1.5-4.2
			c-0.7-2.1-0.9-4.3-1-6.5c-0.3-5.7,0-11.4,0.9-17.1c1-6.7,2.7-14-1.7-19.7c-2.8-3.6-7.8-5.8-12.8-6.7c-5.1-0.9-10.3-0.7-15.4-0.6
			c-18,0.5-36,0.6-54,0.4c-1.8,0-3.7,0-5.1,0.9c-1.1,0.7-1.6,1.9-2.1,3c-1.8,4-3.7,8.1-5.5,12.1c-1.2,2.7-2.5,5.8-1.2,8.5
			c0.5,1,1.3,2,1.8,3c0.4,1,0.4,2.1,0.3,3.2c-0.5,11.2-0.9,22.4-1.4,33.6c-0.2,3.7-0.3,7.6,1.1,11.1c2,5.3,7.4,9.6,13.8,11"/>
	</g>
	<g>
		<path class="st3" d="M485.2,975c7.1,0.1,14.3,0.1,21.4,0.2c2.8,0,5.6,0.1,8.4-0.3c1.4-0.2,2.8-0.5,4.2-0.4
			c2.8,0.1,5.4,1.4,8.1,2.2c5.5,1.5,11.5,0.2,17.3-0.6c10.4-1.4,12.5,0.9,23,1.3c-0.7,1.3,8.2,1,9.3,2.1c0.7,0.7,1.6,1.2,2.2,1.8
			c2.2,2.3,0.9,5.7,0.5,8.6c-0.4,3.2,0.5,6.5,1.1,9.7c0.8,4.3,0.9,8.7,0.9,13.1c-0.2,14.6-2.7,29-5.8,43.4c-0.1,0.6-0.3,1.3-1,1.7
			c-0.4,0.2-0.9,0.3-1.4,0.3c-5,0.3-9.9,0.5-14.9,0.8c-6,0.3-12.1,0.6-18.1,0.2c-7.9-0.6-15.6-2.5-23.5-2.4
			c-3.7,0.1-7.5,0.6-11.2,0.5c-6.4-0.2-12.5-2.4-18.5-4.5c-2.4-0.9-4.9-1.8-6.2-3.7c-1-1.5-1.2-3.2-1.3-4.9
			c-0.3-5.6-0.6-11.2,0.7-16.6c0.9-3.5,2.4-7,3.3-10.5c2-8.2,0-16.8-2.3-24.9c-0.8-2.8-1.7-5.7-1.4-8.5c0.2-2.9,1.8-5.9,4.8-7.3"/>
	</g>
	<g>
		<path class="st3" d="M717.4,1054.8c0.1-6,0.2-12,0.3-17.9c0-2.3,0.1-4.7-0.4-7c-0.2-1.2-0.6-2.3-0.5-3.5c0.1-2.4,1.7-4.5,2.6-6.8
			c1.8-4.7,0.2-9.7-0.7-14.5c-1.7-8.7,1-10.5,1.5-19.3c1.6,0.6,1.1-6.9,2.5-7.8c0.8-0.5,1.4-1.3,2.2-1.9c2.8-1.9,6.8-0.7,10.3-0.4
			c3.9,0.3,7.7-0.4,11.6-0.9c5.2-0.6,10.4-0.8,15.7-0.7c17.4,0.2,34.6,2.3,51.7,4.9c0.7,0.1,1.6,0.3,2,0.8c0.3,0.3,0.3,0.8,0.3,1.2
			c0.3,4.2,0.6,8.3,0.9,12.5c0.4,5,0.8,10.1,0.2,15.2c-0.7,6.6-3,13.1-2.8,19.7c0.1,3.1,0.7,6.3,0.6,9.4c-0.3,5.4-2.8,10.5-5.4,15.5
			c-1,2-2.2,4.1-4.4,5.2c-1.7,0.9-3.8,1-5.9,1.1c-6.6,0.3-13.3,0.5-19.8-0.6c-4.2-0.7-8.3-2.1-12.5-2.8c-9.8-1.7-20,0-29.7,2
			c-3.3,0.7-6.8,1.4-10.2,1.2s-7-1.5-8.7-4"/>
	</g>
	<g>
		<path class="st3" d="M599.1,989.1c0.7,3.9-1.6,7.7-2.2,11.6c-0.6,4.2,1,8.4,0.9,12.6c-0.1,4-1.5,7.9-2.2,11.8
			c-1.8,9.9,1.2,20.4,8.2,28.5c1,1.1,2,2.2,3.5,2.9c1.6,0.8,3.6,0.9,5.5,1.1c5.9,0.5,11.9,0.9,17.8,1.4c2,0.2,4.1,0.3,6.1,0
			c1.7-0.3,3.3-0.9,5-1.3c2.5-0.6,5.1-0.8,7.8-0.9c6.8-0.3,13.6,0,20.4,0.7c8,0.9,16.7,2.3,23.5-1.4c4.3-2.4,6.9-6.5,8-10.7
			c1.1-4.2,0.9-8.6,0.7-13c-0.6-15.1-0.8-30.2-0.4-45.3c0-1.5,0-3.1-1.1-4.2c-0.9-0.9-2.2-1.4-3.5-1.8c-4.8-1.5-9.6-3.1-14.5-4.6
			c-3.2-1-6.9-2.1-10.1-1c-1.2,0.4-2.3,1.1-3.6,1.5c-1.2,0.3-2.5,0.3-3.8,0.3c-13.4-0.4-26.7-0.8-40.1-1.1c-4.5-0.1-9-0.2-13.3,0.9
			c-6.3,1.7-11.4,6.2-13.1,11.6"/>
	</g>
	<g>
		<path class="st3" d="M1508.7,978.9c-0.1,6-0.2,12-0.3,17.9c0,2.3-0.1,4.7,0.4,7c0.2,1.2,0.6,2.3,0.5,3.5c-0.1,2.4-1.7,4.5-2.6,6.8
			c-1.8,4.7-0.2,9.7,0.7,14.5c1.7,8.7-1,10.5-1.5,19.3c-1.6-0.6-1.1,6.9-2.5,7.8c-0.8,0.5-1.4,1.3-2.2,1.9
			c-2.8,1.9-6.8,0.7-10.3,0.4c-3.9-0.3-7.7,0.4-11.6,0.9c-5.2,0.6-10.4,0.8-15.7,0.7c-17.4-0.2-34.6-2.3-51.7-4.9
			c-0.7-0.1-1.6-0.3-2-0.8c-0.3-0.3-0.3-0.8-0.3-1.2c-0.3-4.2-0.6-8.3-0.9-12.5c-0.4-5-0.8-10.1-0.2-15.2c0.7-6.6,3-13.1,2.8-19.7
			c-0.1-3.1-0.7-6.3-0.6-9.4c0.3-5.4,2.8-10.5,5.4-15.5c1-2,2.2-4.1,4.4-5.2c1.7-0.9,3.8-1,5.9-1.1c6.6-0.3,13.3-0.5,19.8,0.6
			c4.2,0.7,8.3,2.1,12.5,2.8c9.8,1.7,20,0,29.7-2c3.3-0.7,6.8-1.4,10.2-1.2c3.4,0.2,7,1.5,8.7,4"/>
	</g>
	<g>
		<path class="st3" d="M1527.4,989.1c0.7,3.9-1.6,7.7-2.2,11.6c-0.6,4.2,1,8.4,0.9,12.6c-0.1,4-1.5,7.9-2.2,11.8
			c-1.8,9.9,1.2,20.4,8.2,28.5c1,1.1,2,2.2,3.5,2.9c1.6,0.8,3.6,0.9,5.5,1.1c5.9,0.5,11.9,0.9,17.8,1.4c2,0.2,4.1,0.3,6.1,0
			c1.7-0.3,3.3-0.9,5-1.3c2.5-0.6,5.1-0.8,7.8-0.9c6.8-0.3,13.6,0,20.4,0.7c8,0.9,16.7,2.3,23.5-1.4c4.3-2.4,6.9-6.5,8-10.7
			c1.1-4.2,0.9-8.6,0.7-13c-0.6-15.1-0.8-30.2-0.4-45.3c0-1.5,0-3.1-1.1-4.2c-0.9-0.9-2.2-1.4-3.5-1.8c-4.8-1.5-9.6-3.1-14.5-4.6
			c-3.2-1-6.9-2.1-10.1-1c-1.2,0.4-2.3,1.1-3.6,1.5c-1.2,0.3-2.5,0.3-3.8,0.3c-13.4-0.4-26.7-0.8-40.1-1.1c-4.5-0.1-9-0.2-13.3,0.9
			c-6.3,1.7-11.4,6.2-13.1,11.6"/>
	</g>
	<g>
		<path class="st3" d="M1276.8,1062.3c-7.1-0.1-14.3-0.1-21.4-0.2c-2.8,0-5.6-0.1-8.4,0.3c-1.4,0.2-2.8,0.5-4.2,0.4
			c-2.8-0.1-5.4-1.4-8.1-2.2c-5.5-1.5-11.5-0.2-17.3,0.6c-10.4,1.4-12.5-0.9-23-1.3c0.7-1.3-8.2-1-9.3-2.1c-0.7-0.7-1.6-1.2-2.2-1.8
			c-2.2-2.3-0.9-5.7-0.5-8.6c0.4-3.2-0.5-6.5-1.1-9.7c-0.8-4.3-0.9-8.7-0.9-13.1c0.2-14.6,2.7-29,5.8-43.4c0.1-0.6,0.3-1.3,1-1.7
			c0.4-0.2,0.9-0.3,1.4-0.3c5-0.3,9.9-0.5,14.9-0.8c6-0.3,12.1-0.6,18.1-0.2c7.9,0.6,15.6,2.5,23.5,2.4c3.7-0.1,7.5-0.6,11.2-0.5
			c6.4,0.2,12.5,2.4,18.5,4.5c2.4,0.9,4.9,1.8,6.2,3.7c1,1.5,1.2,3.2,1.3,4.9c0.3,5.6,0.6,11.2-0.7,16.6c-0.9,3.5-2.4,7-3.3,10.5
			c-2,8.2,0,16.8,2.3,24.9c0.8,2.8,1.7,5.7,1.4,8.5c-0.2,2.9-1.8,5.9-4.8,7.3"/>
	</g>
	<g>
		<path class="st3" d="M949.4,978.6c7.1,0.1,14.3,0.1,21.4,0.2c2.8,0,5.6,0.1,8.4-0.3c1.4-0.2,2.8-0.5,4.2-0.4
			c2.8,0.1,5.4,1.4,8.1,2.2c5.5,1.5,11.5,0.2,17.3-0.6c10.4-1.4,12.5,0.9,23,1.3c-0.7,1.3,8.2,1,9.3,2.1c0.7,0.7,1.6,1.2,2.2,1.8
			c2.2,2.3,0.9,5.7,0.5,8.6c-0.4,3.2,0.5,6.5,1.1,9.7c0.8,4.3,0.9,8.7,0.9,13.1c-0.2,14.6-2.7,29-5.8,43.4c-0.1,0.6-0.3,1.3-1,1.7
			c-0.4,0.2-0.9,0.3-1.4,0.3c-5,0.3-9.9,0.5-14.9,0.8c-6,0.3-12.1,0.6-18.1,0.2c-7.9-0.6-15.6-2.5-23.5-2.4
			c-3.7,0.1-7.5,0.6-11.2,0.5c-6.4-0.2-12.5-2.4-18.5-4.5c-2.4-0.9-4.9-1.8-6.2-3.7c-1-1.5-1.2-3.2-1.3-4.9
			c-0.3-5.6-0.6-11.2,0.7-16.6c0.9-3.5,2.4-7,3.3-10.5c2-8.2,0-16.8-2.3-24.9c-0.8-2.8-1.7-5.7-1.4-8.5c0.2-2.9,1.8-5.9,4.8-7.3"/>
	</g>
	<g>
		<path class="st3" d="M1972.2,979.6c-0.1,6-0.2,12-0.3,17.9c0,2.3-0.1,4.7,0.4,7c0.2,1.2,0.6,2.3,0.5,3.5c-0.1,2.4-1.7,4.5-2.6,6.8
			c-1.8,4.7-0.2,9.7,0.7,14.5c1.7,8.7-1,10.5-1.5,19.3c-1.6-0.6-1.1,6.9-2.5,7.8c-0.8,0.5-1.4,1.3-2.2,1.9
			c-2.8,1.9-6.8,0.7-10.3,0.4c-3.9-0.3-7.7,0.4-11.6,0.9c-5.2,0.6-10.4,0.8-15.7,0.7c-17.4-0.2-99.6-0.3-116.7-2.9
			c-0.7-0.1-1.6-0.3-2-0.8c-0.3-0.3-0.3-0.8-0.3-1.2c-0.3-4.2-0.6-8.3-0.9-12.5c-0.4-5-0.8-10.1-0.2-15.2c0.7-6.6,3-13.1,2.8-19.7
			c-0.1-3.1-0.7-6.3-0.6-9.4c0.3-5.4,2.8-10.5,5.4-15.5c1-2,2.2-4.1,4.4-5.2c1.7-0.9,3.8-1,5.9-1.1c6.6-0.3,13.3-0.5,19.8,0.6
			c4.2,0.7,73.3,0.1,77.5,0.8c9.8,1.7,20,0,29.7-2c3.3-0.7,6.8-1.4,10.2-1.2c3.4,0.2,7,1.5,8.7,4"/>
	</g>
	<g>
		<path class="st3" d="M2090.6,1045.4c-0.7-3.9,1.6-7.7,2.2-11.6c0.6-4.2-1-8.4-0.9-12.6c0.1-4,1.5-7.9,2.2-11.8
			c1.8-9.9-1.2-20.4-8.2-28.5c-1-1.1-2-2.2-3.5-2.9c-1.6-0.8-3.6-0.9-5.5-1.1c-5.9-0.5-11.9-0.9-17.8-1.4c-2-0.2-4.1-0.3-6.1,0
			c-1.7,0.3-3.3,0.9-5,1.3c-2.5,0.6-5.1,0.8-7.8,0.9c-6.8,0.3-13.6,0-20.4-0.7c-8-0.9-16.7-2.3-23.5,1.4c-4.3,2.4-6.9,6.5-8,10.7
			c-1.1,4.2-0.9,8.6-0.7,13c0.6,15.1,0.8,30.2,0.4,45.3c0,1.5,0,3.1,1.1,4.2c0.9,0.9,2.2,1.4,3.5,1.8c4.8,1.5,9.6,3.1,14.5,4.6
			c3.2,1,6.9,2.1,10.1,1c1.2-0.4,2.3-1.1,3.6-1.5c1.2-0.3,2.5-0.3,3.8-0.3c13.4,0.4,26.7,0.8,40.1,1.1c4.5,0.1,9,0.2,13.3-0.9
			c6.3-1.7,11.4-6.2,13.1-11.6"/>
	</g>
	<g>
		<path class="st3" d="M1163,1048.2c-0.7-3.9,1.6-7.7,2.2-11.6c0.6-4.2-1-8.4-0.9-12.6c0.1-4,1.5-7.9,2.2-11.8
			c1.8-9.9-1.2-20.4-8.2-28.5c-1-1.1-2-2.2-3.5-2.9c-1.6-0.8-3.6-0.9-5.5-1.1c-5.9-0.5-11.9-0.9-17.8-1.4c-2-0.2-4.1-0.3-6.1,0
			c-1.7,0.3-3.3,0.9-5,1.3c-2.5,0.6-5.1,0.8-7.8,0.9c-6.8,0.3-13.6,0-20.4-0.7c-8-0.9-16.7-2.3-23.5,1.4c-4.3,2.4-6.9,6.5-8,10.7
			c-1.1,4.2-0.9,8.6-0.7,13c0.6,15.1,0.8,30.2,0.4,45.3c0,1.5,0,3.1,1.1,4.2c0.9,0.9,2.2,1.4,3.5,1.8c4.8,1.5,9.6,3.1,14.5,4.6
			c3.2,1,6.9,2.1,10.1,1c1.2-0.4,2.3-1.1,3.6-1.5c1.2-0.3,2.5-0.3,3.8-0.3c13.4,0.4,26.7,0.8,40.1,1.1c4.5,0.1,9,0.2,13.3-0.9
			c6.3-1.7,11.4-6.2,13.1-11.6"/>
	</g>
	<g>
		<path class="st3" d="M1310.7,1061.6c4.7-0.6,9.2,1.4,13.9,1.8c5,0.5,10-0.8,15-0.8c4.8,0,9.4,1.3,14.1,1.9c11.8,1.5,24.3-1,34-6.9
			c1.3-0.8,2.7-1.7,3.5-2.9c0.9-1.4,1.1-3,1.3-4.6c0.5-5,1.1-10,1.6-14.9c0.2-1.7,0.4-3.4,0-5.1c-0.3-1.4-1-2.8-1.5-4.2
			c-0.7-2.1-0.9-4.3-1-6.5c-0.3-5.7,0-11.4,0.9-17.1c1-6.7,2.7-14-1.7-19.7c-2.8-3.6-7.8-5.8-12.8-6.7c-5.1-0.9-10.3-0.7-15.4-0.6
			c-18,0.5-36,0.6-54,0.4c-1.8,0-3.7,0-5.1,0.9c-1.1,0.7-1.6,1.9-2.1,3c-1.8,4-3.7,8.1-5.5,12.1c-1.2,2.7-2.5,5.8-1.2,8.5
			c0.5,1,1.3,2,1.8,3c0.4,1,0.4,2.1,0.3,3.2c-0.5,11.2-0.9,22.4-1.4,33.6c-0.2,3.7-0.3,7.6,1.1,11.1c2,5.3,7.4,9.6,13.8,11"/>
	</g>
	<g>
		<path class="st3" d="M2088.9,862.3c-7.1-0.1-14.3-0.1-21.4-0.2c-2.8,0-5.6-0.1-8.4,0.3c-1.4,0.2-2.8,0.5-4.2,0.4
			c-2.8-0.1-5.4-1.4-8.1-2.2c-5.5-1.5-11.5-0.2-17.3,0.6c-10.4,1.4-12.5-0.9-23-1.3c0.7-1.3-8.2-1-9.3-2.1c-0.7-0.7-1.6-1.2-2.2-1.8
			c-2.2-2.3-0.9-5.7-0.5-8.6c0.4-3.2-0.5-6.5-1.1-9.7c-0.8-4.3-0.9-8.7-0.9-13.1c0.2-14.6,2.7-29,5.8-43.4c0.1-0.6,0.3-1.3,1-1.7
			c0.4-0.2,0.9-0.3,1.4-0.3c5-0.3,9.9-0.5,14.9-0.8c6-0.3,12.1-0.6,18.1-0.2c7.9,0.6,15.6,2.5,23.5,2.4c3.7-0.1,7.5-0.6,11.2-0.5
			c6.4,0.2,12.5,2.4,18.5,4.5c2.4,0.9,4.9,1.8,6.2,3.7c1,1.5,1.2,3.2,1.3,4.9c0.3,5.6,0.6,11.2-0.7,16.6c-0.9,3.5-2.4,7-3.3,10.5
			c-2,8.2,0,16.8,2.3,24.9c0.8,2.8,1.7,5.7,1.4,8.5c-0.2,2.9-1.8,5.9-4.8,7.3"/>
	</g>
	<g>
		<path class="st3" d="M1856.6,782.4c-0.1,6-0.2,12-0.3,17.9c0,2.3-0.1,4.7,0.4,7c0.2,1.2,0.6,2.3,0.5,3.5c-0.1,2.4-1.7,4.5-2.6,6.8
			c-1.8,4.7-0.2,9.7,0.7,14.5c1.7,8.7-1,10.5-1.5,19.3c-1.6-0.6-1.1,6.9-2.5,7.8c-0.8,0.5-1.4,1.3-2.2,1.9
			c-2.8,1.9-6.8,0.7-10.3,0.4c-3.9-0.3-7.7,0.4-11.6,0.9c-5.2,0.6-10.4,0.8-15.7,0.7c-17.4-0.2-34.6-2.3-51.7-4.9
			c-0.7-0.1-1.6-0.3-2-0.8c-0.3-0.3-0.3-0.8-0.3-1.2c-0.3-4.2-0.6-8.3-0.9-12.5c-0.4-5-0.8-10.1-0.2-15.2c0.7-6.6,3-13.1,2.8-19.7
			c-0.1-3.1-0.7-6.3-0.6-9.4c0.3-5.4,2.8-10.5,5.4-15.5c1-2,2.2-4.1,4.4-5.2c1.7-0.9,3.8-1,5.9-1.1c6.6-0.3,13.3-0.5,19.8,0.6
			c4.2,0.7,8.3,2.1,12.5,2.8c9.8,1.7,20,0,29.7-2c3.3-0.7,6.8-1.4,10.2-1.2s7,1.5,8.7,4"/>
	</g>
	<g>
		<path class="st3" d="M1975,848.2c-0.7-3.9,1.6-7.7,2.2-11.6c0.6-4.2-1-8.4-0.9-12.6c0.1-4,1.5-7.9,2.2-11.8
			c1.8-9.9-1.2-20.4-8.2-28.5c-1-1.1-2-2.2-3.5-2.9c-1.6-0.8-3.6-0.9-5.5-1.1c-5.9-0.5-11.9-0.9-17.8-1.4c-2-0.2-4.1-0.3-6.1,0
			c-1.7,0.3-3.3,0.9-5,1.3c-2.5,0.6-5.1,0.8-7.8,0.9c-6.8,0.3-13.6,0-20.4-0.7c-8-0.9-16.7-2.3-23.5,1.4c-4.3,2.4-6.9,6.5-8,10.7
			s-0.9,8.6-0.7,13c0.6,15.1,0.8,30.2,0.4,45.3c0,1.5,0,3.1,1.1,4.2c0.9,0.9,2.2,1.4,3.5,1.8c4.8,1.5,9.6,3.1,14.5,4.6
			c3.2,1,6.9,2.1,10.1,1c1.2-0.4,2.3-1.1,3.6-1.5c1.2-0.3,2.5-0.3,3.8-0.3c13.4,0.4,26.7,0.8,40.1,1.1c4.5,0.1,9,0.2,13.3-0.9
			c6.3-1.7,11.4-6.2,13.1-11.6"/>
	</g>
	<g>
		<path class="st3" d="M1065.4,858.4c0.1-6,0.2-12,0.3-17.9c0-2.3,0.1-4.7-0.4-7c-0.2-1.2-0.6-2.3-0.5-3.5c0.1-2.4,1.7-4.5,2.6-6.8
			c1.8-4.7,0.2-9.7-0.7-14.5c-1.7-8.7,1-10.5,1.5-19.3c1.6,0.6,1.1-6.9,2.5-7.8c0.8-0.5,1.4-1.3,2.2-1.9c2.8-1.9,6.8-0.7,10.3-0.4
			c3.9,0.3,7.7-0.4,11.6-0.9c5.2-0.6,10.4-0.8,15.7-0.7c17.4,0.2,34.6,2.3,51.7,4.9c0.7,0.1,1.6,0.3,2,0.8c0.3,0.3,0.3,0.8,0.3,1.2
			c0.3,4.2,0.6,8.3,0.9,12.5c0.4,5,0.8,10.1,0.2,15.2c-0.7,6.6-3,13.1-2.8,19.7c0.1,3.1,0.7,6.3,0.6,9.4c-0.3,5.4-2.8,10.5-5.4,15.5
			c-1,2-2.2,4.1-4.4,5.2c-1.7,0.9-3.8,1-5.9,1.1c-6.6,0.3-13.3,0.5-19.8-0.6c-4.2-0.7-8.3-2.1-12.5-2.8c-9.8-1.7-20,0-29.7,2
			c-3.3,0.7-6.8,1.4-10.2,1.2c-3.4-0.2-7-1.5-8.7-4"/>
	</g>
	<g>
		<path class="st3" d="M1046.7,848.2c-0.7-3.9,1.6-7.7,2.2-11.6c0.6-4.2-1-8.4-0.9-12.6c0.1-4,1.5-7.9,2.2-11.8
			c1.8-9.9-1.2-20.4-8.2-28.5c-1-1.1-2-2.2-3.5-2.9c-1.6-0.8-3.6-0.9-5.5-1.1c-5.9-0.5-11.9-0.9-17.8-1.4c-2-0.2-4.1-0.3-6.1,0
			c-1.7,0.3-3.3,0.9-5,1.3c-2.5,0.6-5.1,0.8-7.8,0.9c-6.8,0.3-13.6,0-20.4-0.7c-8-0.9-16.7-2.3-23.5,1.4c-4.3,2.4-6.9,6.5-8,10.7
			c-1.1,4.2-0.9,8.6-0.7,13c0.6,15.1,0.8,30.2,0.4,45.3c0,1.5,0,3.1,1.1,4.2c0.9,0.9,2.2,1.4,3.5,1.8c4.8,1.5,9.6,3.1,14.5,4.6
			c3.2,1,6.9,2.1,10.1,1c1.2-0.4,2.3-1.1,3.6-1.5c1.2-0.3,2.5-0.3,3.8-0.3c13.4,0.4,26.7,0.8,40.1,1.1c4.5,0.1,9,0.2,13.3-0.9
			c6.3-1.7,11.4-6.2,13.1-11.6"/>
	</g>
	<g>
		<path class="st3" d="M1659.5,861.6c4.7-0.6,9.2,1.4,13.9,1.8c5,0.5,10-0.8,15-0.8c4.8,0,9.4,1.3,14.1,1.9c11.8,1.5,24.3-1,34-6.9
			c1.3-0.8,2.7-1.7,3.5-2.9c0.9-1.4,1.1-3,1.3-4.6c0.5-5,1.1-10,1.6-14.9c0.2-1.7,0.4-3.4,0-5.1c-0.3-1.4-1-2.8-1.5-4.2
			c-0.7-2.1-0.9-4.3-1-6.5c-0.3-5.7,0-11.4,0.9-17.1c1-6.7,2.7-14-1.7-19.7c-2.8-3.6-7.8-5.8-12.8-6.7c-5.1-0.9-10.3-0.7-15.4-0.6
			c-18,0.5-36,0.6-54,0.4c-1.8,0-3.7,0-5.1,0.9c-1.1,0.7-1.6,1.9-2.1,3c-1.8,4-3.7,8.1-5.5,12.1c-1.2,2.7-2.5,5.8-1.2,8.5
			c0.5,1,1.3,2,1.8,3c0.4,1,0.4,2.1,0.3,3.2c-0.5,11.2-0.9,22.4-1.4,33.6c-0.2,3.7-0.3,7.6,1.1,11.1c2,5.3,7.4,9.6,13.8,11"/>
	</g>
	<g>
		<path class="st3" d="M1297.2,774.9c7.1,0.1,14.3,0.1,21.4,0.2c2.8,0,5.6,0.1,8.4-0.3c1.4-0.2,2.8-0.5,4.2-0.4
			c2.8,0.1,5.4,1.4,8.1,2.2c5.5,1.5,11.5,0.2,17.3-0.6c10.4-1.4,12.5,0.9,23,1.3c-0.7,1.3,8.2,1,9.3,2.1c0.7,0.7,1.6,1.2,2.2,1.8
			c2.2,2.3,0.9,5.7,0.5,8.6c-0.4,3.2,0.5,6.5,1.1,9.7c0.8,4.3,0.9,8.7,0.9,13.1c-0.2,14.6-2.7,29-5.8,43.4c-0.1,0.6-0.3,1.3-1,1.7
			c-0.4,0.2-0.9,0.3-1.4,0.3c-5,0.3-9.9,0.5-14.9,0.8c-6,0.3-12.1,0.6-18.1,0.2c-7.9-0.6-15.6-2.5-23.5-2.4
			c-3.7,0.1-7.5,0.6-11.2,0.5c-6.4-0.2-12.5-2.4-18.5-4.5c-2.4-0.9-4.9-1.8-6.2-3.7c-1-1.5-1.2-3.2-1.3-4.9
			c-0.3-5.6-0.6-11.2,0.7-16.6c0.9-3.5,2.4-7,3.3-10.5c2-8.2,0-16.8-2.3-24.9c-0.8-2.8-1.7-5.7-1.4-8.5c0.2-2.9,1.8-5.9,4.8-7.3"/>
	</g>
	<g>
		<path class="st3" d="M1624.7,858.7c-7.1-0.1-14.3-0.1-21.4-0.2c-2.8,0-5.6-0.1-8.4,0.3c-1.4,0.2-2.8,0.5-4.2,0.4
			c-2.8-0.1-5.4-1.4-8.1-2.2c-5.5-1.5-11.5-0.2-17.3,0.6c-10.4,1.4-12.5-0.9-23-1.3c0.7-1.3-8.2-1-9.3-2.1c-0.7-0.7-1.6-1.2-2.2-1.8
			c-2.2-2.3-0.9-5.7-0.5-8.6c0.4-3.2-0.5-6.5-1.1-9.7c-0.8-4.3-0.9-8.7-0.9-13.1c0.2-14.6,2.7-29,5.8-43.4c0.1-0.6,0.3-1.3,1-1.7
			c0.4-0.2,0.9-0.3,1.4-0.3c5-0.3,9.9-0.5,14.9-0.8c6-0.3,12.1-0.6,18.1-0.2c7.9,0.6,15.6,2.5,23.5,2.4c3.7-0.1,7.5-0.6,11.2-0.5
			c6.4,0.2,12.5,2.4,18.5,4.5c2.4,0.9,4.9,1.8,6.2,3.7c1,1.5,1.2,3.2,1.3,4.9c0.3,5.6,0.6,11.2-0.7,16.6c-0.9,3.5-2.4,7-3.3,10.5
			c-2,8.2,0,16.8,2.3,24.9c0.8,2.8,1.7,5.7,1.4,8.5c-0.2,2.9-1.8,5.9-4.8,7.3"/>
	</g>
	<g>
		<path class="st3" d="M601.8,857.6c0.1-6,0.2-12,0.3-17.9c0-2.3,0.1-4.7-0.4-7c-0.2-1.2-0.6-2.3-0.5-3.5c0.1-2.4,1.7-4.5,2.6-6.8
			c1.8-4.7,0.2-9.7-0.7-14.5c-1.7-8.7,1-10.5,1.5-19.3c1.6,0.6,1.1-6.9,2.5-7.8c0.8-0.5,1.4-1.3,2.2-1.9c2.8-1.9,6.8-0.7,10.3-0.4
			c3.9,0.3,7.7-0.4,11.6-0.9c5.2-0.6,10.4-0.8,15.7-0.7c17.4,0.2,34.6,2.3,51.7,4.9c0.7,0.1,1.6,0.3,2,0.8c0.3,0.3,0.3,0.8,0.3,1.2
			c0.3,4.2,0.6,8.3,0.9,12.5c0.4,5,0.8,10.1,0.2,15.2c-0.7,6.6-3,13.1-2.8,19.7c0.1,3.1,0.7,6.3,0.6,9.4c-0.3,5.4-2.8,10.5-5.4,15.5
			c-1,2-2.2,4.1-4.4,5.2c-1.7,0.9-3.8,1-5.9,1.1c-6.6,0.3-13.3,0.5-19.8-0.6c-4.2-0.7-8.3-2.1-12.5-2.8c-9.8-1.7-20,0-29.7,2
			c-3.3,0.7-6.8,1.4-10.2,1.2c-3.4-0.2-7-1.5-8.7-4"/>
	</g>
	<g>
		<path class="st3" d="M426.5,791.9c0.7,3.9-1.6,7.7-2.2,11.6c-0.6,4.2,1,8.4,0.9,12.6c-0.1,4-1.5,7.9-2.2,11.8
			c-1.8,9.9,1.2,20.4,8.2,28.5c1,1.1,2,2.2,3.5,2.9c1.6,0.8,3.6,0.9,5.5,1.1c5.9,0.5,11.9,0.9,17.8,1.4c2,0.2,4.1,0.3,6.1,0
			c1.7-0.3,3.3-0.9,5-1.3c2.5-0.6,5.1-0.8,7.8-0.9c6.8-0.3,70.6,0,77.4,0.7c8,0.9,16.7,2.3,23.5-1.4c4.3-2.4,6.9-6.5,8-10.7
			c1.1-4.2,0.9-8.6,0.7-13c-0.6-15.1-0.8-30.2-0.4-45.3c0-1.5,0-3.1-1.1-4.2c-0.9-0.9-2.2-1.4-3.5-1.8c-4.8-1.5-9.6-3.1-14.5-4.6
			c-3.2-1-6.9-2.1-10.1-1c-1.2,0.4-2.3,1.1-3.6,1.5c-1.2,0.3-2.5,0.3-3.8,0.3c-13.4-0.4-83.7-0.8-97.1-1.1c-4.5-0.1-9-0.2-13.3,0.9
			c-6.3,1.7-11.4,6.2-13.1,11.6"/>
	</g>
	<g>
		<path class="st3" d="M799,778.5c-4.7,0.6-9.2-1.4-13.9-1.8c-5-0.5-10,0.8-15,0.8c-4.8,0-9.4-1.3-14.1-1.9c-11.8-1.5-24.3,1-34,6.9
			c-1.3,0.8-2.7,1.7-3.5,2.9c-0.9,1.4-1.1,3-1.3,4.6c-0.5,5-1.1,10-1.6,14.9c-0.2,1.7-0.4,3.4,0,5.1c0.3,1.4,1,2.8,1.5,4.2
			c0.7,2.1,0.9,4.3,1,6.5c0.3,5.7,0,11.4-0.9,17.1c-1,6.7-2.7,14,1.7,19.7c2.8,3.6,7.8,5.8,12.8,6.7c5.1,0.9,10.3,0.7,15.4,0.6
			c18-0.5,36-0.6,54-0.4c1.8,0,3.7,0,5.1-0.9c1.1-0.7,1.6-1.9,2.1-3c1.8-4,3.7-8.1,5.5-12.1c1.2-2.7,2.5-5.8,1.2-8.5
			c-0.5-1-1.3-2-1.8-3c-0.4-1-0.4-2.1-0.3-3.2c0.5-11.2,0.9-22.4,1.4-33.6c0.2-3.7,0.3-7.6-1.1-11.1c-2-5.3-7.4-9.6-13.8-11"/>
	</g>
	<g>
		<path class="st3" d="M833.8,781.4c7.1,0.1,14.3,0.1,21.4,0.2c2.8,0,5.6,0.1,8.4-0.3c1.4-0.2,2.8-0.5,4.2-0.4
			c2.8,0.1,5.4,1.4,8.1,2.2c5.5,1.5,11.5,0.2,17.3-0.6c10.4-1.4,12.5,0.9,23,1.3c-0.7,1.3,8.2,1,9.3,2.1c0.7,0.7,1.6,1.2,2.2,1.8
			c2.2,2.3,0.9,5.7,0.5,8.6c-0.4,3.2,0.5,6.5,1.1,9.7c0.8,4.3,0.9,8.7,0.9,13.1c-0.2,14.6-2.7,29-5.8,43.4c-0.1,0.6-0.3,1.3-1,1.7
			c-0.4,0.2-0.9,0.3-1.4,0.3c-5,0.3-9.9,0.5-14.9,0.8c-6,0.3-12.1,0.6-18.1,0.2c-7.9-0.6-15.6-2.5-23.5-2.4
			c-3.7,0.1-7.5,0.6-11.2,0.5c-6.4-0.2-12.5-2.4-18.5-4.5c-2.4-0.9-4.9-1.8-6.2-3.7c-1-1.5-1.2-3.2-1.3-4.9
			c-0.3-5.6-0.6-11.2,0.7-16.6c0.9-3.5,2.4-7,3.3-10.5c2-8.2,0-16.8-2.3-24.9c-0.8-2.8-1.7-5.7-1.4-8.5c0.2-2.9,1.8-5.9,4.8-7.3"/>
	</g>
	<g>
		<path class="st3" d="M1411.1,789c0.7,3.9-1.6,7.7-2.2,11.6c-0.6,4.2,1,8.4,0.9,12.6c-0.1,4-1.5,7.9-2.2,11.8
			c-1.8,9.9,1.2,20.4,8.2,28.5c1,1.1,2,2.2,3.5,2.9c1.6,0.8,3.6,0.9,5.5,1.1c5.9,0.5,11.9,0.9,17.8,1.4c2,0.2,4.1,0.3,6.1,0
			c1.7-0.3,3.3-0.9,5-1.3c2.5-0.6,5.1-0.8,7.8-0.9c6.8-0.3,13.6,0,20.4,0.7c8,0.9,16.7,2.3,23.5-1.4c4.3-2.4,6.9-6.5,8-10.7
			s0.9-8.6,0.7-13c-0.6-15.1-0.8-30.2-0.4-45.3c0-1.5,0-3.1-1.1-4.2c-0.9-0.9-2.2-1.4-3.5-1.8c-4.8-1.5-9.6-3.1-14.5-4.6
			c-3.2-1-6.9-2.1-10.1-1c-1.2,0.4-2.3,1.1-3.6,1.5c-1.2,0.3-2.5,0.3-3.8,0.3c-13.4-0.4-26.7-0.8-40.1-1.1c-4.5-0.1-9-0.2-13.3,0.9
			c-6.3,1.7-11.4,6.2-13.1,11.6"/>
	</g>
	<g>
		<path class="st3" d="M1263.4,775.6c-4.7,0.6-9.2-1.4-13.9-1.8c-5-0.5-10,0.8-15,0.8c-4.8,0-9.4-1.3-14.1-1.9
			c-11.8-1.5-24.3,1-34,6.9c-1.3,0.8-2.7,1.7-3.5,2.9c-0.9,1.4-1.1,3-1.3,4.6c-0.5,5-1.1,10-1.6,14.9c-0.2,1.7-0.4,3.4,0,5.1
			c0.3,1.4,1,2.8,1.5,4.2c0.7,2.1,0.9,4.3,1,6.5c0.3,5.7,0,11.4-0.9,17.1c-1,6.7-2.7,14,1.7,19.7c2.8,3.6,7.8,5.8,12.8,6.7
			c5.1,0.9,10.3,0.7,15.4,0.6c18-0.5,36-0.6,54-0.4c1.8,0,3.7,0,5.1-0.9c1.1-0.7,1.6-1.9,2.1-3c1.8-4,3.7-8.1,5.5-12.1
			c1.2-2.7,2.5-5.8,1.2-8.5c-0.5-1-1.3-2-1.8-3c-0.4-1-0.4-2.1-0.3-3.2c0.5-11.2,0.9-22.4,1.4-33.6c0.2-3.7,0.3-7.6-1.1-11.1
			c-2-5.3-7.4-9.6-13.8-11"/>
	</g>
	<g>
		<path class="st3" d="M2032.1,764.1c-7.1-0.1-14.3-0.1-21.4-0.2c-2.8,0-5.6-0.1-8.4,0.3c-1.4,0.2-2.8,0.5-4.2,0.4
			c-2.8-0.1-5.4-1.4-8.1-2.2c-5.5-1.5-11.5-0.2-17.3,0.6c-10.4,1.4-12.5-0.9-23-1.3c0.7-1.3-8.2-1-9.3-2.1c-0.7-0.7-1.6-1.2-2.2-1.8
			c-2.2-2.3-0.9-5.7-0.5-8.6c0.4-3.2-0.5-6.5-1.1-9.7c-0.8-4.3-0.9-8.7-0.9-13.1c0.2-14.6,2.7-29,5.8-43.4c0.1-0.6,0.3-1.3,1-1.7
			c0.4-0.2,0.9-0.3,1.4-0.3c5-0.3,9.9-0.5,14.9-0.8c6-0.3,12.1-0.6,18.1-0.2c7.9,0.6,15.6,2.5,23.5,2.4c3.7-0.1,7.5-0.6,11.2-0.5
			c6.4,0.2,12.5,2.4,18.5,4.5c2.4,0.9,4.9,1.8,6.2,3.7c1,1.5,1.2,3.2,1.3,4.9c0.3,5.6,0.6,11.2-0.7,16.6c-0.9,3.5-2.4,7-3.3,10.5
			c-2,8.2,0,16.8,2.3,24.9c0.8,2.8,1.7,5.7,1.4,8.5c-0.2,2.9-1.8,5.9-4.8,7.3"/>
	</g>
	<g>
		<path class="st3" d="M1799.8,684.2c-0.1,6-0.2,12-0.3,17.9c0,2.3-0.1,4.7,0.4,7c0.2,1.2,0.6,2.3,0.5,3.5c-0.1,2.4-1.7,4.5-2.6,6.8
			c-1.8,4.7-0.2,9.7,0.7,14.5c1.7,8.7-1,10.5-1.5,19.3c-1.6-0.6-1.1,6.9-2.5,7.8c-0.8,0.5-1.4,1.3-2.2,1.9
			c-2.8,1.9-6.8,0.7-10.3,0.4c-3.9-0.3-7.7,0.4-11.6,0.9c-5.2,0.6-10.4,0.8-15.7,0.7c-17.4-0.2-34.6-2.3-51.7-4.9
			c-0.7-0.1-1.6-0.3-2-0.8c-0.3-0.3-0.3-0.8-0.3-1.2c-0.3-4.2-0.6-8.3-0.9-12.5c-0.4-5-0.8-10.1-0.2-15.2c0.7-6.6,3-13.1,2.8-19.7
			c-0.1-3.1-0.7-6.3-0.6-9.4c0.3-5.4,2.8-10.5,5.4-15.5c1-2,2.2-4.1,4.4-5.2c1.7-0.9,3.8-1,5.9-1.1c6.6-0.3,13.3-0.5,19.8,0.6
			c4.2,0.7,8.3,2.1,12.5,2.8c9.8,1.7,20,0,29.7-2c3.3-0.7,6.8-1.4,10.2-1.2c3.4,0.2,7,1.5,8.7,4"/>
	</g>
	<g>
		<path class="st3" d="M1918.2,750c-0.7-3.9,1.6-7.7,2.2-11.6c0.6-4.2-1-8.4-0.9-12.6c0.1-4,1.5-7.9,2.2-11.8
			c1.8-9.9-1.2-20.4-8.2-28.5c-1-1.1-2-2.2-3.5-2.9c-1.6-0.8-3.6-0.9-5.5-1.1c-5.9-0.5-11.9-0.9-17.8-1.4c-2-0.2-4.1-0.3-6.1,0
			c-1.7,0.3-3.3,0.9-5,1.3c-2.5,0.6-5.1,0.8-7.8,0.9c-6.8,0.3-13.6,0-20.4-0.7c-8-0.9-16.7-2.3-23.5,1.4c-4.3,2.4-6.9,6.5-8,10.7
			c-1.1,4.2-0.9,8.6-0.7,13c0.6,15.1,0.8,30.2,0.4,45.3c0,1.5,0,3.1,1.1,4.2c0.9,0.9,2.2,1.4,3.5,1.8c4.8,1.5,9.6,3.1,14.5,4.6
			c3.2,1,6.9,2.1,10.1,1c1.2-0.4,2.3-1.1,3.6-1.5c1.2-0.3,2.5-0.3,3.8-0.3c13.4,0.4,26.7,0.8,40.1,1.1c4.5,0.1,9,0.2,13.3-0.9
			c6.3-1.7,11.4-6.2,13.1-11.6"/>
	</g>
	<g>
		<path class="st3" d="M1008.6,760.2c0.1-6,0.2-12,0.3-17.9c0-2.3,0.1-4.7-0.4-7c-0.2-1.2-0.6-2.3-0.5-3.5c0.1-2.4,1.7-4.5,2.6-6.8
			c1.8-4.7,0.2-9.7-0.7-14.5c-1.7-8.7,1-10.5,1.5-19.3c1.6,0.6,1.1-6.9,2.5-7.8c0.8-0.5,1.4-1.3,2.2-1.9c2.8-1.9,6.8-0.7,10.3-0.4
			c3.9,0.3,7.7-0.4,11.6-0.9c5.2-0.6,10.4-0.8,15.7-0.7c17.4,0.2,34.6,2.3,51.7,4.9c0.7,0.1,1.6,0.3,2,0.8c0.3,0.3,0.3,0.8,0.3,1.2
			c0.3,4.2,0.6,8.3,0.9,12.5c0.4,5,0.8,10.1,0.2,15.2c-0.7,6.6-3,13.1-2.8,19.7c0.1,3.1,0.7,6.3,0.6,9.4c-0.3,5.4-2.8,10.5-5.4,15.5
			c-1,2-2.2,4.1-4.4,5.2c-1.7,0.9-3.8,1-5.9,1.1c-6.6,0.3-13.3,0.5-19.8-0.6c-4.2-0.7-8.3-2.1-12.5-2.8c-9.8-1.7-20,0-29.7,2
			c-3.3,0.7-6.8,1.4-10.2,1.2c-3.4-0.2-7-1.5-8.7-4"/>
	</g>
	<g>
		<path class="st3" d="M989.9,750c-0.7-3.9,1.6-7.7,2.2-11.6c0.6-4.2-1-8.4-0.9-12.6c0.1-4,1.5-7.9,2.2-11.8
			c1.8-9.9-1.2-20.4-8.2-28.5c-1-1.1-2-2.2-3.5-2.9c-1.6-0.8-3.6-0.9-5.5-1.1c-5.9-0.5-11.9-0.9-17.8-1.4c-2-0.2-4.1-0.3-6.1,0
			c-1.7,0.3-3.3,0.9-5,1.3c-2.5,0.6-5.1,0.8-7.8,0.9c-6.8,0.3-13.6,0-20.4-0.7c-8-0.9-16.7-2.3-23.5,1.4c-4.3,2.4-6.9,6.5-8,10.7
			s-0.9,8.6-0.7,13c0.6,15.1,0.8,30.2,0.4,45.3c0,1.5,0,3.1,1.1,4.2c0.9,0.9,2.2,1.4,3.5,1.8c4.8,1.5,9.6,3.1,14.5,4.6
			c3.2,1,6.9,2.1,10.1,1c1.2-0.4,2.3-1.1,3.6-1.5c1.2-0.3,2.5-0.3,3.8-0.3c13.4,0.4,26.7,0.8,40.1,1.1c4.5,0.1,9,0.2,13.3-0.9
			c6.3-1.7,11.4-6.2,13.1-11.6"/>
	</g>
	<g>
		<path class="st3" d="M1602.6,763.4c4.7-0.6,9.2,1.4,13.9,1.8c5,0.5,10-0.8,15-0.8c4.8,0,9.4,1.3,14.1,1.9c11.8,1.5,24.3-1,34-6.9
			c1.3-0.8,2.7-1.7,3.5-2.9c0.9-1.4,1.1-3,1.3-4.6c0.5-5,1.1-10,1.6-14.9c0.2-1.7,0.4-3.4,0-5.1c-0.3-1.4-1-2.8-1.5-4.2
			c-0.7-2.1-0.9-4.3-1-6.5c-0.3-5.7,0-11.4,0.9-17.1c1-6.7,2.7-14-1.7-19.7c-2.8-3.6-7.8-5.8-12.8-6.7s-10.3-0.7-15.4-0.6
			c-18,0.5-36,0.6-54,0.4c-1.8,0-3.7,0-5.1,0.9c-1.1,0.7-1.6,1.9-2.1,3c-1.8,4-3.7,8.1-5.5,12.1c-1.2,2.7-2.5,5.8-1.2,8.5
			c0.5,1,1.3,2,1.8,3c0.4,1,0.4,2.1,0.3,3.2c-0.5,11.2-0.9,22.4-1.4,33.6c-0.2,3.7-0.3,7.6,1.1,11.1c2,5.3,7.4,9.6,13.8,11"/>
	</g>
	<g>
		<path class="st3" d="M1240.4,676.7c7.1,0.1,14.3,0.1,21.4,0.2c2.8,0,5.6,0.1,8.4-0.3c1.4-0.2,2.8-0.5,4.2-0.4
			c2.8,0.1,5.4,1.4,8.1,2.2c5.5,1.5,11.5,0.2,17.3-0.6c10.4-1.4,12.5,0.9,23,1.3c-0.7,1.3,8.2,1,9.3,2.1c0.7,0.7,1.6,1.2,2.2,1.8
			c2.2,2.3,0.9,5.7,0.5,8.6c-0.4,3.2,0.5,6.5,1.1,9.7c0.8,4.3,0.9,8.7,0.9,13.1c-0.2,14.6-2.7,29-5.8,43.4c-0.1,0.6-0.3,1.3-1,1.7
			c-0.4,0.2-0.9,0.3-1.4,0.3c-5,0.3-9.9,0.5-14.9,0.8c-6,0.3-12.1,0.6-18.1,0.2c-7.9-0.6-15.6-2.5-23.5-2.4
			c-3.7,0.1-7.5,0.6-11.2,0.5c-6.4-0.2-12.5-2.4-18.5-4.5c-2.4-0.9-4.9-1.8-6.2-3.7c-1-1.5-1.2-3.2-1.3-4.9
			c-0.3-5.6-0.6-11.2,0.7-16.6c0.9-3.5,2.4-7,3.3-10.5c2-8.2,0-16.8-2.3-24.9c-0.8-2.8-1.7-5.7-1.4-8.5c0.2-2.9,1.8-5.9,4.8-7.3"/>
	</g>
	<g>
		<path class="st3" d="M1567.9,760.5c-7.1-0.1-14.3-0.1-21.4-0.2c-2.8,0-5.6-0.1-8.4,0.3c-1.4,0.2-2.8,0.5-4.2,0.4
			c-2.8-0.1-5.4-1.4-8.1-2.2c-5.5-1.5-11.5-0.2-17.3,0.6c-10.4,1.4-12.5-0.9-23-1.3c0.7-1.3-8.2-1-9.3-2.1c-0.7-0.7-1.6-1.2-2.2-1.8
			c-2.2-2.3-0.9-5.7-0.5-8.6c0.4-3.2-0.5-6.5-1.1-9.7c-0.8-4.3-0.9-8.7-0.9-13.1c0.2-14.6,2.7-29,5.8-43.4c0.1-0.6,0.3-1.3,1-1.7
			c0.4-0.2,0.9-0.3,1.4-0.3c5-0.3,9.9-0.5,14.9-0.8c6-0.3,12.1-0.6,18.1-0.2c7.9,0.6,15.6,2.5,23.5,2.4c3.7-0.1,7.5-0.6,11.2-0.5
			c6.4,0.2,12.5,2.4,18.5,4.5c2.4,0.9,4.9,1.8,6.2,3.7c1,1.5,1.2,3.2,1.3,4.9c0.3,5.6,0.6,11.2-0.7,16.6c-0.9,3.5-2.4,7-3.3,10.5
			c-2,8.2,0,16.8,2.3,24.9c0.8,2.8,1.7,5.7,1.4,8.5s-1.8,5.9-4.8,7.3"/>
	</g>
	<g>
		<path class="st3" d="M545,759.4c0.1-6,0.2-12,0.3-17.9c0-2.3,0.1-4.7-0.4-7c-0.2-1.2-0.6-2.3-0.5-3.5c0.1-2.4,1.7-4.5,2.6-6.8
			c1.8-4.7,0.2-9.7-0.7-14.5c-1.7-8.7,1-10.5,1.5-19.3c1.6,0.6,1.1-6.9,2.5-7.8c0.8-0.5,1.4-1.3,2.2-1.9c2.8-1.9,6.8-0.7,10.3-0.4
			c3.9,0.3,7.7-0.4,11.6-0.9c5.2-0.6,10.4-0.8,15.7-0.7c17.4,0.2,34.6,2.3,51.7,4.9c0.7,0.1,1.6,0.3,2,0.8c0.3,0.3,0.3,0.8,0.3,1.2
			c0.3,4.2,0.6,8.3,0.9,12.5c0.4,5,0.8,10.1,0.2,15.2c-0.7,6.6-3,13.1-2.8,19.7c0.1,3.1,0.7,6.3,0.6,9.4c-0.3,5.4-2.8,10.5-5.4,15.5
			c-1,2-2.2,4.1-4.4,5.2c-1.7,0.9-3.8,1-5.9,1.1c-6.6,0.3-13.3,0.5-19.8-0.6c-4.2-0.7-8.3-2.1-12.5-2.8c-9.8-1.7-20,0-29.7,2
			c-3.3,0.7-6.8,1.4-10.2,1.2c-3.4-0.2-7-1.5-8.7-4"/>
	</g>
	<g>
		<path class="st3" d="M742.2,680.3c-4.7,0.6-9.2-1.4-13.9-1.8c-5-0.5-10,0.8-15,0.8c-4.8,0-9.4-1.3-14.1-1.9
			c-11.8-1.5-24.3,1-34,6.9c-1.3,0.8-2.7,1.7-3.5,2.9c-0.9,1.4-1.1,3-1.3,4.6c-0.5,5-1.1,10-1.6,14.9c-0.2,1.7-0.4,3.4,0,5.1
			c0.3,1.4,1,2.8,1.5,4.2c0.7,2.1,0.9,4.3,1,6.5c0.3,5.7,0,11.4-0.9,17.1c-1,6.7-2.7,14,1.7,19.7c2.8,3.6,7.8,5.8,12.8,6.7
			s10.3,0.7,15.4,0.6c18-0.5,36-0.6,54-0.4c1.8,0,3.7,0,5.1-0.9c1.1-0.7,1.6-1.9,2.1-3c1.8-4,3.7-8.1,5.5-12.1
			c1.2-2.7,2.5-5.8,1.2-8.5c-0.5-1-1.3-2-1.8-3c-0.4-1-0.4-2.1-0.3-3.2c0.5-11.2,0.9-22.4,1.4-33.6c0.2-3.7,0.3-7.6-1.1-11.1
			c-2-5.3-7.4-9.6-13.8-11"/>
	</g>
	<g>
		<path class="st3" d="M777,683.2c7.1,0.1,14.3,0.1,21.4,0.2c2.8,0,5.6,0.1,8.4-0.3c1.4-0.2,2.8-0.5,4.2-0.4
			c2.8,0.1,5.4,1.4,8.1,2.2c5.5,1.5,11.5,0.2,17.3-0.6c10.4-1.4,12.5,0.9,23,1.3c-0.7,1.3,8.2,1,9.3,2.1c0.7,0.7,1.6,1.2,2.2,1.8
			c2.2,2.3,0.9,5.7,0.5,8.6c-0.4,3.2,0.5,6.5,1.1,9.7c0.8,4.3,0.9,8.7,0.9,13.1c-0.2,14.6-2.7,29-5.8,43.4c-0.1,0.6-0.3,1.3-1,1.7
			c-0.4,0.2-0.9,0.3-1.4,0.3c-5,0.3-9.9,0.5-14.9,0.8c-6,0.3-12.1,0.6-18.1,0.2c-7.9-0.6-15.6-2.5-23.5-2.4
			c-3.7,0.1-7.5,0.6-11.2,0.5c-6.4-0.2-12.5-2.4-18.5-4.5c-2.4-0.9-4.9-1.8-6.2-3.7c-1-1.5-1.2-3.2-1.3-4.9
			c-0.3-5.6-0.6-11.2,0.7-16.6c0.9-3.5,2.4-7,3.3-10.5c2-8.2,0-16.8-2.3-24.9c-0.8-2.8-1.7-5.7-1.4-8.5c0.2-2.9,1.8-5.9,4.8-7.3"/>
	</g>
	<g>
		<path class="st3" d="M1354.3,690.8c0.7,3.9-1.6,7.7-2.2,11.6c-0.6,4.2,1,8.4,0.9,12.6c-0.1,4-1.5,7.9-2.2,11.8
			c-1.8,9.9,1.2,20.4,8.2,28.5c1,1.1,2,2.2,3.5,2.9c1.6,0.8,3.6,0.9,5.5,1.1c5.9,0.5,11.9,0.9,17.8,1.4c2,0.2,4.1,0.3,6.1,0
			c1.7-0.3,3.3-0.9,5-1.3c2.5-0.6,5.1-0.8,7.8-0.9c6.8-0.3,13.6,0,20.4,0.7c8,0.9,16.7,2.3,23.5-1.4c4.3-2.4,6.9-6.5,8-10.7
			s0.9-8.6,0.7-13c-0.6-15.1-0.8-30.2-0.4-45.3c0-1.5,0-3.1-1.1-4.2c-0.9-0.9-2.2-1.4-3.5-1.8c-4.8-1.5-9.6-3.1-14.5-4.6
			c-3.2-1-6.9-2.1-10.1-1c-1.2,0.4-2.3,1.1-3.6,1.5c-1.2,0.3-2.5,0.3-3.8,0.3c-13.4-0.4-26.7-0.8-40.1-1.1c-4.5-0.1-9-0.2-13.3,0.9
			c-6.3,1.7-11.4,6.2-13.1,11.6"/>
	</g>
	<g>
		<path class="st3" d="M1206.6,677.4c-4.7,0.6-9.2-1.4-13.9-1.8c-5-0.5-10,0.8-15,0.8c-4.8,0-9.4-1.3-14.1-1.9
			c-11.8-1.5-24.3,1-34,6.9c-1.3,0.8-2.7,1.7-3.5,2.9c-0.9,1.4-1.1,3-1.3,4.6c-0.5,5-1.1,10-1.6,14.9c-0.2,1.7-0.4,3.4,0,5.1
			c0.3,1.4,1,2.8,1.5,4.2c0.7,2.1,0.9,4.3,1,6.5c0.3,5.7,0,11.4-0.9,17.1c-1,6.7-2.7,14,1.7,19.7c2.8,3.6,7.8,5.8,12.8,6.7
			s10.3,0.7,15.4,0.6c18-0.5,36-0.6,54-0.4c1.8,0,3.7,0,5.1-0.9c1.1-0.7,1.6-1.9,2.1-3c1.8-4,3.7-8.1,5.5-12.1
			c1.2-2.7,2.5-5.8,1.2-8.5c-0.5-1-1.3-2-1.8-3c-0.4-1-0.4-2.1-0.3-3.2c0.5-11.2,0.9-22.4,1.4-33.6c0.2-3.7,0.3-7.6-1.1-11.1
			c-2-5.3-7.4-9.6-13.8-11"/>
	</g>
	<g>
		<g>
			<path class="st7" d="M792.9,943.8c-7.6-7.4-8.7-19-4.4-28.4c2.1-4.5,5.3-8.5,9.6-11c4.4-2.6,9.5-3.2,14.5-2
				c5.8,1.4,11.2,5.4,15.1,9.8c3.2,3.6,5.5,8,6.3,12.8c1.4,8.1-1.9,16.9-8.7,21.7c-8.5,6-19.4,4.4-28.1-0.4c-1.5-0.8-3-1.7-4.4-2.7
				c-1.6-1.1-3.1,1.5-1.5,2.6c9.6,6.6,22.2,10.3,33.1,4.6c8.4-4.4,13.4-13.7,12.9-23.1c-0.6-12-9.4-21.6-19.9-26.7
				c-5.2-2.6-11.9-2.8-17.3-0.7c-5.2,2-9.4,5.7-12.4,10.4c-6,9.5-6.7,22.7,0.1,32c0.9,1.2,1.9,2.4,3,3.4
				C792.2,947.2,794.3,945.1,792.9,943.8L792.9,943.8z"/>
		</g>
	</g>
	<g>
		<g>
			<path class="st7" d="M814,909.8c-4.8-0.5-11.6-0.3-15,3.8c-1.2,1.4-1.8,3.3-1.2,5.1c0.6,2.1,2.5,3.6,4.3,4.7
				c3,1.7,6.4,2.4,9.8,2.9c1.5,0.2,2.8,0.2,4.2,0.7c0.5,0.2,0.6,0.2,1,0.4c0.2,0.1,0.4,0.2,0.6,0.3c0.3,0.2,0.3,0.2,0.4,0.3
				c0.7,0.6,0.9,0.8,1.3,1.6c0.3,0.5,0.2,0.3,0.4,0.8c0,0.2,0.1,0.3,0.1,0.5c0,0.1,0,0.2,0,0.2c0.1,0.4,0-0.3,0,0.1c0,0.3,0,0.7,0,1
				c0,0.3,0,0,0,0c0,0.1,0,0.2-0.1,0.3c0,0.2-0.1,0.4-0.2,0.6c-0.1,0.4-0.5,1.1-0.9,1.5c-0.6,0.6-1.3,1-2,1.3
				c-1.1,0.4-2.2,0.6-3.5,0.5c-3.9,0-7.7-1.5-11.2-3.2c-1.7-0.8-3.3,1.7-1.5,2.6c5.3,2.6,12.3,5.2,18,2.5c3.3-1.6,5.2-5.3,4-8.9
				c-0.6-1.8-1.8-3.3-3.3-4.3c-2.3-1.5-4.9-1.5-7.5-1.9c-3.1-0.5-6.4-1.2-9-3c-0.7-0.5-1.4-1.2-1.8-1.8c-0.4-0.7-0.5-0.9-0.4-1.7
				c0,0.4,0.1-0.2,0.1-0.3c0.1-0.4-0.1,0,0.2-0.3c0.3-0.5,0.3-0.5,0.7-0.9c0.6-0.6,1.6-1.2,2.6-1.6c3.1-1.2,6.6-1.2,9.9-0.9
				C815.9,913,815.9,910,814,909.8L814,909.8z"/>
		</g>
	</g>
	<g>
		<g>
			<path class="st7" d="M804,908.2c2.8,10.9,4.8,22,6,33.2c0.2,1.9,3.2,1.9,3,0c-1.2-11.5-3.2-22.9-6.1-34
				C806.4,905.5,803.5,906.3,804,908.2L804,908.2z"/>
		</g>
	</g>
</g>
<g id="Layer_3">
	<g>
		<g>
			<g>
				<path class="st20" d="M644.5,570.2c-5.5-10.1-18.1-15.3-29.1-12c-1.8,0.6-1.1,3.4,0.8,2.9c9.7-2.9,20.9,1.7,25.7,10.6
					C642.9,573.4,645.4,571.9,644.5,570.2L644.5,570.2z"/>
			</g>
		</g>
		<g>
			<g>
				<path class="st20" d="M635.6,555c2.5,0.4,4.7,1.8,6.2,3.8c0.8,1.1,1.3,2.1,1.6,3.3c0.3,1.2,0.4,2.5,0.2,3.6
					c-0.1,0.8,0.2,1.6,1,1.8c0.7,0.2,1.7-0.2,1.8-1c1.1-6.5-3.5-13.4-10.2-14.4c-0.8-0.1-1.6,0.2-1.8,1
					C634.3,553.9,634.8,554.9,635.6,555L635.6,555z"/>
			</g>
		</g>
		<g>
			<g>
				<path class="st20" d="M654.3,571.6c2.7-5,4.2-10.6,4.5-16.3c0.1-1.9-2.9-1.9-3,0c-0.2,5.2-1.6,10.2-4.1,14.7
					C650.8,571.8,653.4,573.3,654.3,571.6L654.3,571.6z"/>
			</g>
		</g>
		<g>
			<g>
				<path class="st20" d="M668,568.5c3.9-5.6,3-13.9-2-18.6c-1.4-1.3-3.5,0.8-2.1,2.1c4.1,3.8,4.7,10.4,1.5,14.9
					c-0.5,0.7-0.1,1.7,0.5,2.1C666.7,569.4,667.5,569.1,668,568.5L668,568.5z"/>
			</g>
		</g>
		<g>
			<g>
				<path class="st20" d="M677.2,571.5c2.5-4,7.5-6.2,12.2-5.4c0.8,0.2,1.6-0.2,1.8-1c0.2-0.7-0.2-1.7-1-1.8
					c-6-1.2-12.3,1.5-15.6,6.7C673.6,571.6,676.2,573.1,677.2,571.5L677.2,571.5z"/>
			</g>
		</g>
		<g>
			<g>
				<path class="st20" d="M690.2,553.9c-4.3-0.6-8.8,1.5-10.8,5.4c-0.3,0.7-0.2,1.7,0.5,2.1c0.7,0.4,1.7,0.2,2.1-0.5
					c0.2-0.4,0.4-0.8,0.7-1.1c0,0,0.2-0.3,0.1-0.2c-0.1,0.1,0.1-0.2,0.1-0.1c0.1-0.2,0.3-0.3,0.4-0.5c0.1-0.1,0.3-0.3,0.4-0.4
					c0.1-0.1,0.2-0.1,0.2-0.2c0.2-0.2-0.1,0.1,0.1,0c0.4-0.2,0.7-0.5,1.1-0.7c0.2-0.1,0.3-0.2,0.5-0.3c0.4-0.2-0.2,0.1,0.1,0
					c0.1,0,0.2-0.1,0.3-0.1c0.4-0.1,0.8-0.3,1.3-0.3c0.1,0,0.2,0,0.3-0.1c0.2,0-0.4,0,0.1,0c0.2,0,0.4,0,0.6,0c0.2,0,0.4,0,0.6,0
					c0.1,0,0.2,0,0.3,0c0.1,0,0.5,0.1,0.1,0c0.8,0.1,1.7-0.2,1.8-1C691.4,555,691,554,690.2,553.9L690.2,553.9z"/>
			</g>
		</g>
	</g>
	<g>
		<g>
			<g>
				<path class="st20" d="M261.5,420.2c-5.5-10.1-18.1-15.3-29.1-12c-1.8,0.6-1.1,3.4,0.8,2.9c9.7-2.9,20.9,1.7,25.7,10.6
					C259.9,423.4,262.4,421.9,261.5,420.2L261.5,420.2z"/>
			</g>
		</g>
		<g>
			<g>
				<path class="st20" d="M252.6,405c2.5,0.4,4.7,1.8,6.2,3.8c0.8,1.1,1.3,2.1,1.6,3.3c0.3,1.2,0.4,2.5,0.2,3.6
					c-0.1,0.8,0.2,1.6,1,1.8c0.7,0.2,1.7-0.2,1.8-1c1.1-6.5-3.5-13.4-10.2-14.4c-0.8-0.1-1.6,0.2-1.8,1
					C251.3,403.9,251.8,404.9,252.6,405L252.6,405z"/>
			</g>
		</g>
		<g>
			<g>
				<path class="st20" d="M271.3,421.6c2.7-5,4.2-10.6,4.5-16.3c0.1-1.9-2.9-1.9-3,0c-0.2,5.2-1.6,10.2-4.1,14.7
					C267.8,421.8,270.4,423.3,271.3,421.6L271.3,421.6z"/>
			</g>
		</g>
		<g>
			<g>
				<path class="st20" d="M285,418.5c3.9-5.6,3-13.9-2-18.6c-1.4-1.3-3.5,0.8-2.1,2.1c4.1,3.8,4.7,10.4,1.5,14.9
					c-0.5,0.7-0.1,1.7,0.5,2.1C283.7,419.4,284.5,419.1,285,418.5L285,418.5z"/>
			</g>
		</g>
		<g>
			<g>
				<path class="st20" d="M294.2,421.5c2.5-4,7.5-6.2,12.2-5.4c0.8,0.2,1.6-0.2,1.8-1c0.2-0.7-0.2-1.7-1-1.8
					c-6-1.2-12.3,1.5-15.6,6.7C290.6,421.6,293.2,423.1,294.2,421.5L294.2,421.5z"/>
			</g>
		</g>
		<g>
			<g>
				<path class="st20" d="M307.2,403.9c-4.3-0.6-8.8,1.5-10.8,5.4c-0.3,0.7-0.2,1.7,0.5,2.1c0.7,0.4,1.7,0.2,2.1-0.5
					c0.2-0.4,0.4-0.8,0.7-1.1c0,0,0.2-0.3,0.1-0.2c-0.1,0.1,0.1-0.2,0.1-0.1c0.1-0.2,0.3-0.3,0.4-0.5c0.1-0.1,0.3-0.3,0.4-0.4
					c0.1-0.1,0.2-0.1,0.2-0.2c0.2-0.2-0.1,0.1,0.1,0c0.4-0.2,0.7-0.5,1.1-0.7c0.2-0.1,0.3-0.2,0.5-0.3c0.4-0.2-0.2,0.1,0.1,0
					c0.1,0,0.2-0.1,0.3-0.1c0.4-0.1,0.8-0.3,1.3-0.3c0.1,0,0.2,0,0.3-0.1c0.2,0-0.4,0,0.1,0c0.2,0,0.4,0,0.6,0c0.2,0,0.4,0,0.6,0
					c0.1,0,0.2,0,0.3,0c0.1,0,0.5,0.1,0.1,0c0.8,0.1,1.7-0.2,1.8-1C308.4,405,308,404,307.2,403.9L307.2,403.9z"/>
			</g>
		</g>
	</g>
	<g>
		<g>
			<g>
				<path class="st20" d="M1686.5,1039.2c-5.5-10.1-18.1-15.3-29.1-12c-1.8,0.6-1.1,3.4,0.8,2.9c9.7-2.9,20.9,1.7,25.7,10.6
					C1684.9,1042.4,1687.4,1040.9,1686.5,1039.2L1686.5,1039.2z"/>
			</g>
		</g>
		<g>
			<g>
				<path class="st20" d="M1677.6,1024c2.5,0.4,4.7,1.8,6.2,3.8c0.8,1.1,1.3,2.1,1.6,3.3c0.3,1.2,0.4,2.5,0.2,3.6
					c-0.1,0.8,0.2,1.6,1,1.8c0.7,0.2,1.7-0.2,1.8-1c1.1-6.5-3.5-13.4-10.2-14.4c-0.8-0.1-1.6,0.2-1.8,1
					C1676.3,1022.9,1676.8,1023.9,1677.6,1024L1677.6,1024z"/>
			</g>
		</g>
		<g>
			<g>
				<path class="st20" d="M1696.3,1040.6c2.7-5,4.2-10.6,4.5-16.3c0.1-1.9-2.9-1.9-3,0c-0.2,5.2-1.6,10.2-4.1,14.7
					C1692.8,1040.8,1695.4,1042.3,1696.3,1040.6L1696.3,1040.6z"/>
			</g>
		</g>
		<g>
			<g>
				<path class="st20" d="M1710,1037.5c3.9-5.6,3-13.9-2-18.6c-1.4-1.3-3.5,0.8-2.1,2.1c4.1,3.8,4.7,10.4,1.5,14.9
					c-0.5,0.7-0.1,1.7,0.5,2.1C1708.7,1038.4,1709.5,1038.1,1710,1037.5L1710,1037.5z"/>
			</g>
		</g>
		<g>
			<g>
				<path class="st20" d="M1719.2,1040.5c2.5-4,7.5-6.2,12.2-5.4c0.8,0.2,1.6-0.2,1.8-1c0.2-0.7-0.2-1.7-1-1.8
					c-6-1.2-12.3,1.5-15.6,6.7C1715.6,1040.6,1718.2,1042.1,1719.2,1040.5L1719.2,1040.5z"/>
			</g>
		</g>
		<g>
			<g>
				<path class="st20" d="M1732.2,1022.9c-4.3-0.6-8.8,1.5-10.8,5.4c-0.3,0.7-0.2,1.7,0.5,2.1c0.7,0.4,1.7,0.2,2.1-0.5
					c0.2-0.4,0.4-0.8,0.7-1.1c0,0,0.2-0.3,0.1-0.2c-0.1,0.1,0.1-0.2,0.1-0.1c0.1-0.2,0.3-0.3,0.4-0.5c0.1-0.1,0.3-0.3,0.4-0.4
					c0.1-0.1,0.2-0.1,0.2-0.2c0.2-0.2-0.1,0.1,0.1,0c0.4-0.2,0.7-0.5,1.1-0.7c0.2-0.1,0.3-0.2,0.5-0.3c0.4-0.2-0.2,0.1,0.1,0
					c0.1,0,0.2-0.1,0.3-0.1c0.4-0.1,0.8-0.3,1.3-0.3c0.1,0,0.2,0,0.3-0.1c0.2,0-0.4,0,0.1,0c0.2,0,0.4,0,0.6,0c0.2,0,0.4,0,0.6,0
					c0.1,0,0.2,0,0.3,0c0.1,0,0.5,0.1,0.1,0c0.8,0.1,1.7-0.2,1.8-1C1733.4,1024,1733,1023,1732.2,1022.9L1732.2,1022.9z"/>
			</g>
		</g>
	</g>
	<g>
		<g>
			<g>
				<path class="st20" d="M2205.5,614.2c-5.5-10.1-18.1-15.3-29.1-12c-1.8,0.6-1.1,3.4,0.8,2.9c9.7-2.9,20.9,1.7,25.7,10.6
					C2203.9,617.4,2206.4,615.9,2205.5,614.2L2205.5,614.2z"/>
			</g>
		</g>
		<g>
			<g>
				<path class="st20" d="M2196.6,599c2.5,0.4,4.7,1.8,6.2,3.8c0.8,1.1,1.3,2.1,1.6,3.3c0.3,1.2,0.4,2.5,0.2,3.6
					c-0.1,0.8,0.2,1.6,1,1.8c0.7,0.2,1.7-0.2,1.8-1c1.1-6.5-3.5-13.4-10.2-14.4c-0.8-0.1-1.6,0.2-1.8,1
					C2195.3,597.9,2195.8,598.9,2196.6,599L2196.6,599z"/>
			</g>
		</g>
		<g>
			<g>
				<path class="st20" d="M2215.3,615.6c2.7-5,4.2-10.6,4.5-16.3c0.1-1.9-2.9-1.9-3,0c-0.2,5.2-1.6,10.2-4.1,14.7
					C2211.8,615.8,2214.4,617.3,2215.3,615.6L2215.3,615.6z"/>
			</g>
		</g>
		<g>
			<g>
				<path class="st20" d="M2229,612.5c3.9-5.6,3-13.9-2-18.6c-1.4-1.3-3.5,0.8-2.1,2.1c4.1,3.8,4.7,10.4,1.5,14.9
					c-0.5,0.7-0.1,1.7,0.5,2.1C2227.7,613.4,2228.5,613.1,2229,612.5L2229,612.5z"/>
			</g>
		</g>
		<g>
			<g>
				<path class="st20" d="M2238.2,615.5c2.5-4,7.5-6.2,12.2-5.4c0.8,0.2,1.6-0.2,1.8-1c0.2-0.7-0.2-1.7-1-1.8
					c-6-1.2-12.3,1.5-15.6,6.7C2234.6,615.6,2237.2,617.1,2238.2,615.5L2238.2,615.5z"/>
			</g>
		</g>
		<g>
			<g>
				<path class="st20" d="M2251.2,597.9c-4.3-0.6-8.8,1.5-10.8,5.4c-0.3,0.7-0.2,1.7,0.5,2.1c0.7,0.4,1.7,0.2,2.1-0.5
					c0.2-0.4,0.4-0.8,0.7-1.1c0,0,0.2-0.3,0.1-0.2c-0.1,0.1,0.1-0.2,0.1-0.1c0.1-0.2,0.3-0.3,0.4-0.5c0.1-0.1,0.3-0.3,0.4-0.4
					c0.1-0.1,0.2-0.1,0.2-0.2c0.2-0.2-0.1,0.1,0.1,0c0.4-0.2,0.7-0.5,1.1-0.7c0.2-0.1,0.3-0.2,0.5-0.3c0.4-0.2-0.2,0.1,0.1,0
					c0.1,0,0.2-0.1,0.3-0.1c0.4-0.1,0.8-0.3,1.3-0.3c0.1,0,0.2,0,0.3-0.1c0.2,0-0.4,0,0.1,0c0.2,0,0.4,0,0.6,0c0.2,0,0.4,0,0.6,0
					c0.1,0,0.2,0,0.3,0c0.1,0,0.5,0.1,0.1,0c0.8,0.1,1.7-0.2,1.8-1C2252.4,599,2252,598,2251.2,597.9L2251.2,597.9z"/>
			</g>
		</g>
	</g>
	<g>
		<g>
			<g>
				<path class="st20" d="M2297.5,731.2c-5.5-10.1-18.1-15.3-29.1-12c-1.8,0.6-1.1,3.4,0.8,2.9c9.7-2.9,20.9,1.7,25.7,10.6
					C2295.9,734.4,2298.4,732.9,2297.5,731.2L2297.5,731.2z"/>
			</g>
		</g>
		<g>
			<g>
				<path class="st20" d="M2288.6,716c2.5,0.4,4.7,1.8,6.2,3.8c0.8,1.1,1.3,2.1,1.6,3.3c0.3,1.2,0.4,2.5,0.2,3.6
					c-0.1,0.8,0.2,1.6,1,1.8c0.7,0.2,1.7-0.2,1.8-1c1.1-6.5-3.5-13.4-10.2-14.4c-0.8-0.1-1.6,0.2-1.8,1
					C2287.3,714.9,2287.8,715.9,2288.6,716L2288.6,716z"/>
			</g>
		</g>
		<g>
			<g>
				<path class="st20" d="M2307.3,732.6c2.7-5,4.2-10.6,4.5-16.3c0.1-1.9-2.9-1.9-3,0c-0.2,5.2-1.6,10.2-4.1,14.7
					C2303.8,732.8,2306.4,734.3,2307.3,732.6L2307.3,732.6z"/>
			</g>
		</g>
		<g>
			<g>
				<path class="st20" d="M2321,729.5c3.9-5.6,3-13.9-2-18.6c-1.4-1.3-3.5,0.8-2.1,2.1c4.1,3.8,4.7,10.4,1.5,14.9
					c-0.5,0.7-0.1,1.7,0.5,2.1C2319.7,730.4,2320.5,730.1,2321,729.5L2321,729.5z"/>
			</g>
		</g>
		<g>
			<g>
				<path class="st20" d="M2330.2,732.5c2.5-4,7.5-6.2,12.2-5.4c0.8,0.2,1.6-0.2,1.8-1c0.2-0.7-0.2-1.7-1-1.8
					c-6-1.2-12.3,1.5-15.6,6.7C2326.6,732.6,2329.2,734.1,2330.2,732.5L2330.2,732.5z"/>
			</g>
		</g>
		<g>
			<g>
				<path class="st20" d="M2343.2,714.9c-4.3-0.6-8.8,1.5-10.8,5.4c-0.3,0.7-0.2,1.7,0.5,2.1c0.7,0.4,1.7,0.2,2.1-0.5
					c0.2-0.4,0.4-0.8,0.7-1.1c0,0,0.2-0.3,0.1-0.2c-0.1,0.1,0.1-0.2,0.1-0.1c0.1-0.2,0.3-0.3,0.4-0.5c0.1-0.1,0.3-0.3,0.4-0.4
					c0.1-0.1,0.2-0.1,0.2-0.2c0.2-0.2-0.1,0.1,0.1,0c0.4-0.2,0.7-0.5,1.1-0.7c0.2-0.1,0.3-0.2,0.5-0.3c0.4-0.2-0.2,0.1,0.1,0
					c0.1,0,0.2-0.1,0.3-0.1c0.4-0.1,0.8-0.3,1.3-0.3c0.1,0,0.2,0,0.3-0.1c0.2,0-0.4,0,0.1,0c0.2,0,0.4,0,0.6,0c0.2,0,0.4,0,0.6,0
					c0.1,0,0.2,0,0.3,0c0.1,0,0.5,0.1,0.1,0c0.8,0.1,1.7-0.2,1.8-1C2344.4,716,2344,715,2343.2,714.9L2343.2,714.9z"/>
			</g>
		</g>
	</g>
	<g>
		<g>
			<g>
				<path class="st20" d="M2101.5,826.2c-5.5-10.1-18.1-15.3-29.1-12c-1.8,0.6-1.1,3.4,0.8,2.9c9.7-2.9,20.9,1.7,25.7,10.6
					C2099.9,829.4,2102.4,827.9,2101.5,826.2L2101.5,826.2z"/>
			</g>
		</g>
		<g>
			<g>
				<path class="st20" d="M2092.6,811c2.5,0.4,4.7,1.8,6.2,3.8c0.8,1.1,1.3,2.1,1.6,3.3c0.3,1.2,0.4,2.5,0.2,3.6
					c-0.1,0.8,0.2,1.6,1,1.8c0.7,0.2,1.7-0.2,1.8-1c1.1-6.5-3.5-13.4-10.2-14.4c-0.8-0.1-1.6,0.2-1.8,1
					C2091.3,809.9,2091.8,810.9,2092.6,811L2092.6,811z"/>
			</g>
		</g>
		<g>
			<g>
				<path class="st20" d="M2111.3,827.6c2.7-5,4.2-10.6,4.5-16.3c0.1-1.9-2.9-1.9-3,0c-0.2,5.2-1.6,10.2-4.1,14.7
					C2107.8,827.8,2110.4,829.3,2111.3,827.6L2111.3,827.6z"/>
			</g>
		</g>
		<g>
			<g>
				<path class="st20" d="M2125,824.5c3.9-5.6,3-13.9-2-18.6c-1.4-1.3-3.5,0.8-2.1,2.1c4.1,3.8,4.7,10.4,1.5,14.9
					c-0.5,0.7-0.1,1.7,0.5,2.1C2123.7,825.4,2124.5,825.1,2125,824.5L2125,824.5z"/>
			</g>
		</g>
		<g>
			<g>
				<path class="st20" d="M2134.2,827.5c2.5-4,7.5-6.2,12.2-5.4c0.8,0.2,1.6-0.2,1.8-1c0.2-0.7-0.2-1.7-1-1.8
					c-6-1.2-12.3,1.5-15.6,6.7C2130.6,827.6,2133.2,829.1,2134.2,827.5L2134.2,827.5z"/>
			</g>
		</g>
		<g>
			<g>
				<path class="st20" d="M2147.2,809.9c-4.3-0.6-8.8,1.5-10.8,5.4c-0.3,0.7-0.2,1.7,0.5,2.1c0.7,0.4,1.7,0.2,2.1-0.5
					c0.2-0.4,0.4-0.8,0.7-1.1c0,0,0.2-0.3,0.1-0.2c-0.1,0.1,0.1-0.2,0.1-0.1c0.1-0.2,0.3-0.3,0.4-0.5c0.1-0.1,0.3-0.3,0.4-0.4
					c0.1-0.1,0.2-0.1,0.2-0.2c0.2-0.2-0.1,0.1,0.1,0c0.4-0.2,0.7-0.5,1.1-0.7c0.2-0.1,0.3-0.2,0.5-0.3c0.4-0.2-0.2,0.1,0.1,0
					c0.1,0,0.2-0.1,0.3-0.1c0.4-0.1,0.8-0.3,1.3-0.3c0.1,0,0.2,0,0.3-0.1c0.2,0-0.4,0,0.1,0c0.2,0,0.4,0,0.6,0c0.2,0,0.4,0,0.6,0
					c0.1,0,0.2,0,0.3,0c0.1,0,0.5,0.1,0.1,0c0.8,0.1,1.7-0.2,1.8-1C2148.4,811,2148,810,2147.2,809.9L2147.2,809.9z"/>
			</g>
		</g>
	</g>
	<g>
		<g>
			<g>
				<path class="st20" d="M350.5,970.2c-5.5-10.1-18.1-15.3-29.1-12c-1.8,0.6-1.1,3.4,0.8,2.9c9.7-2.9,20.9,1.7,25.7,10.6
					C348.9,973.4,351.4,971.9,350.5,970.2L350.5,970.2z"/>
			</g>
		</g>
		<g>
			<g>
				<path class="st20" d="M341.6,955c2.5,0.4,4.7,1.8,6.2,3.8c0.8,1.1,1.3,2.1,1.6,3.3c0.3,1.2,0.4,2.5,0.2,3.6
					c-0.1,0.8,0.2,1.6,1,1.8c0.7,0.2,1.7-0.2,1.8-1c1.1-6.5-3.5-13.4-10.2-14.4c-0.8-0.1-1.6,0.2-1.8,1
					C340.3,953.9,340.8,954.9,341.6,955L341.6,955z"/>
			</g>
		</g>
		<g>
			<g>
				<path class="st20" d="M360.3,971.6c2.7-5,4.2-10.6,4.5-16.3c0.1-1.9-2.9-1.9-3,0c-0.2,5.2-1.6,10.2-4.1,14.7
					C356.8,971.8,359.4,973.3,360.3,971.6L360.3,971.6z"/>
			</g>
		</g>
		<g>
			<g>
				<path class="st20" d="M374,968.5c3.9-5.6,3-13.9-2-18.6c-1.4-1.3-3.5,0.8-2.1,2.1c4.1,3.8,4.7,10.4,1.5,14.9
					c-0.5,0.7-0.1,1.7,0.5,2.1C372.7,969.4,373.5,969.1,374,968.5L374,968.5z"/>
			</g>
		</g>
		<g>
			<g>
				<path class="st20" d="M383.2,971.5c2.5-4,7.5-6.2,12.2-5.4c0.8,0.2,1.6-0.2,1.8-1c0.2-0.7-0.2-1.7-1-1.8
					c-6-1.2-12.3,1.5-15.6,6.7C379.6,971.6,382.2,973.1,383.2,971.5L383.2,971.5z"/>
			</g>
		</g>
		<g>
			<g>
				<path class="st20" d="M396.2,953.9c-4.3-0.6-8.8,1.5-10.8,5.4c-0.3,0.7-0.2,1.7,0.5,2.1c0.7,0.4,1.7,0.2,2.1-0.5
					c0.2-0.4,0.4-0.8,0.7-1.1c0,0,0.2-0.3,0.1-0.2c-0.1,0.1,0.1-0.2,0.1-0.1c0.1-0.2,0.3-0.3,0.4-0.5c0.1-0.1,0.3-0.3,0.4-0.4
					c0.1-0.1,0.2-0.1,0.2-0.2c0.2-0.2-0.1,0.1,0.1,0c0.4-0.2,0.7-0.5,1.1-0.7c0.2-0.1,0.3-0.2,0.5-0.3c0.4-0.2-0.2,0.1,0.1,0
					c0.1,0,0.2-0.1,0.3-0.1c0.4-0.1,0.8-0.3,1.3-0.3c0.1,0,0.2,0,0.3-0.1c0.2,0-0.4,0,0.1,0c0.2,0,0.4,0,0.6,0c0.2,0,0.4,0,0.6,0
					c0.1,0,0.2,0,0.3,0c0.1,0,0.5,0.1,0.1,0c0.8,0.1,1.7-0.2,1.8-1C397.4,955,397,954,396.2,953.9L396.2,953.9z"/>
			</g>
		</g>
	</g>
</g>
</svg>
